<?xml version="1.0" encoding="UTF-8"?>
<svg width="83px" height="67px" viewBox="0 0 83 67" version="1.1" xmlns="http://www.w3.org/2000/svg" xmlns:xlink="http://www.w3.org/1999/xlink">
    <!-- Generator: Sketch 44 (41411) - http://www.bohemiancoding.com/sketch -->
    <title>book</title>
    <desc>Created with Sketch.</desc>
    <defs></defs>
    <g id="Page-1" stroke="none" stroke-width="1" fill="none" fill-rule="evenodd">
        <g id="book" fill-rule="nonzero" fill="#FFFFFF">
            <path d="M7.4,66.9 C4,66.9 0,66.5 0,64.7 L0,1.5 L1.4,1.5 C1.4,2 3.4,2.9 7.3,2.9 C11.2,2.9 13.2,2 13.2,1.5 L14.6,1.5 L14.6,64.7 C14.7,66.5 10.7,66.9 7.4,66.9 Z M1.5,64.6 C1.9,65 4,65.4 7.4,65.4 C10.8,65.4 12.9,64.9 13.3,64.6 L13.3,3.4 C11.4,4.3 8.3,4.4 7.4,4.4 C6.6,4.4 3.4,4.3 1.5,3.4 L1.5,64.6 Z" id="Shape"></path>
            <path d="M20.6,66.9 C15.7,66.9 13.3,66.2 13.3,64.9 L13.3,6.9 L14.7,6.9 C14.7,7.2 16.5,8.2 20.6,8.2 C24.7,8.2 26.5,7.3 26.5,6.9 L27.9,6.9 L27.9,64.9 C27.9,66.2 25.4,66.9 20.6,66.9 Z M14.7,64.7 C15.2,65 17.2,65.5 20.6,65.5 C24,65.5 26,65.1 26.5,64.7 L26.5,8.6 C24.7,9.4 21.8,9.5 20.6,9.5 C19.4,9.5 16.5,9.4 14.7,8.6 L14.7,64.7 L14.7,64.7 Z" id="Shape"></path>
            <path d="M33.7,67 C28.9,67 26.5,66.3 26.5,65 L26.5,7 L27.9,7 C27.9,7.3 29.7,8.3 33.7,8.3 C37.7,8.3 39.5,7.4 39.5,7 L40.9,7 L40.9,65 C40.9,66.4 38.5,67 33.7,67 Z M27.9,64.8 C28.4,65.1 30.4,65.6 33.7,65.6 C37,65.6 39,65.2 39.5,64.8 L39.5,8.7 C37.7,9.5 34.8,9.6 33.7,9.6 C32.6,9.6 29.7,9.5 27.9,8.7 L27.9,64.8 Z" id="Shape"></path>
            <path d="M46.8,66.9 C43.5,66.9 39.5,66.5 39.5,64.7 L39.5,0 L40.9,0 C40.9,0.6 43.1,1.5 46.8,1.5 C50.5,1.5 52.7,0.6 52.7,0 L54.1,0 L54.1,64.6 C54.1,66.5 50.2,66.9 46.8,66.9 Z M40.9,2 L40.9,64.7 C41.1,64.9 43.1,65.5 46.8,65.5 C50.3,65.5 52.3,65 52.7,64.6 L52.7,2 C51.3,2.7 49,3 46.8,3 C44.6,3 42.3,2.7 40.9,2 Z" id="Shape"></path>
            <rect id="Rectangle-path" x="3.9" y="5.5" width="6.7" height="1.4"></rect>
            <rect id="Rectangle-path" x="3.9" y="8.1" width="6.7" height="1.4"></rect>
            <rect id="Rectangle-path" x="3.9" y="10.8" width="6.7" height="1.4"></rect>
            <rect id="Rectangle-path" x="4" y="60.1" width="6.7" height="1.4"></rect>
            <rect id="Rectangle-path" x="17.2" y="58.9" width="6.7" height="1.4"></rect>
            <rect id="Rectangle-path" x="17.9" y="18.7" width="1.4" height="32"></rect>
            <rect id="Rectangle-path" x="21.8" y="18.7" width="1.4" height="32"></rect>
            <rect id="Rectangle-path" transform="translate(33.798683, 59.497799) rotate(-1.063013) translate(-33.798683, -59.497799) " x="27.1988676" y="58.7978187" width="13.1996317" height="1.39996094"></rect>
            <rect id="Rectangle-path" transform="translate(33.798988, 55.697859) rotate(-1.063013) translate(-33.798988, -55.697859) " x="27.1991719" y="54.9978787" width="13.1996317" height="1.39996094"></rect>
            <rect id="Rectangle-path" transform="translate(46.797943, 59.596623) rotate(-1.007095) translate(-46.797943, -59.596623) " x="40.1982432" y="58.8966548" width="13.199399" height="1.39993625"></rect>
            <rect id="Rectangle-path" transform="translate(46.796512, 8.798883) rotate(-1.007095) translate(-46.796512, -8.798883) " x="40.1968123" y="8.09891482" width="13.199399" height="1.39993625"></rect>
            <g id="Group" transform="translate(53.000000, 11.000000)">
                <path d="M13.4,0.5 C13.5,1 11.6,2.3 8.1,3.3 C4.6,4.3 2.2,4.2 2.1,3.8 L0.7,4.2 L15.4,55.1 C15.8,56.5 19.7,55.7 22.9,54.8 C26.1,53.9 29.9,52.5 29.4,51 L14.8,0.1 L13.4,0.5 Z M26.6,46.1 L15.3,49.5 L5.3,14.9 L16.6,11.5 L26.6,46.1 Z M16.3,10.4 L5,13.8 L4.5,11.9 L15.8,8.5 L16.3,10.4 Z M8.4,4.4 C10.5,3.8 12.6,2.9 13.8,2 L15.3,7.3 L4,10.7 L2.4,5.2 C4.1,5.4 6.3,5 8.4,4.4 Z M22.6,53.7 C19.1,54.7 17,54.8 16.8,54.7 L15.6,50.7 L26.9,47.3 L28.1,51.4 C27.8,51.7 26,52.7 22.6,53.7 Z" id="Shape"></path>
                <rect id="Rectangle-path" transform="translate(15.791680, 29.818720) rotate(-16.057151) translate(-15.791680, -29.818720) " x="15.09167" y="16.7185329" width="1.40001999" height="26.2003741"></rect>
            </g>
            <rect id="Rectangle-path" x="49" y="28.8" width="1.4" height="5.3"></rect>
            <rect id="Rectangle-path" x="44.4" y="30.7" width="5.3" height="1.4"></rect>
            <rect id="Rectangle-path" x="49" y="21.6" width="1.4" height="5.3"></rect>
            <rect id="Rectangle-path" x="44.4" y="23.5" width="5.3" height="1.4"></rect>
        </g>
    </g>
</svg>