<?xml version="1.0" encoding="UTF-8"?>
<svg width="90px" height="62px" viewBox="0 0 90 62" version="1.1" xmlns="http://www.w3.org/2000/svg" xmlns:xlink="http://www.w3.org/1999/xlink">
    <!-- Generator: Sketch 44 (41411) - http://www.bohemiancoding.com/sketch -->
    <title>stage2</title>
    <desc>Created with Sketch.</desc>
    <defs></defs>
    <g id="Page-1" stroke="none" stroke-width="1" fill="none" fill-rule="evenodd">
        <g id="stage2" fill-rule="nonzero" fill="#FFFFFF">
            <path d="M90,48.6 C90,48.4 90,48.2 89.9,47.9 C89.7,45.6 89.4,40.9 86,40.9 C85.7,40.9 85.4,40.9 85.1,41 L82.3,41.5 C81.9,41.4 80.2,41.1 78.1,41.1 C76.1,41.1 74.4,41.4 73,42 L72.4,39.6 L73,37.9 C74.8,26.1 61.5,21.5 61.4,21.5 L54.4,19.4 C54.4,19.4 54.3,19.4 54.2,19.4 C53.8,19.4 52.9,19.8 52.6,20.7 C46.7,19.7 34.7,18.4 32.4,18.1 C32.6,16.3 32.3,14.5 31.6,12.8 C31.8,12.7 31.9,12.6 32,12.5 C32.6,11.9 32.8,11.1 32.8,10.3 C32.7,9.5 32.3,8.7 31.7,8.1 C30.5,6.9 28.8,6.8 27.6,7.6 C26.2,5.5 19.6,-3.7 9.8,2.3 C9.8,2.3 9.7,2.4 9.7,2.4 C9.4,2.1 8.9,2 8.5,2.1 C7.7,2.2 6.6,2.7 5.7,4.2 C5.3,4.8 4.8,5.1 4.1,5.1 C2.5,5.1 0.7,3.6 0.7,3.6 C0.6,3.5 0.4,3.5 0.2,3.6 C0,3.7 0,3.9 0,4.1 C0.8,7 2.1,8.2 3.3,8.6 C0.3,14.7 2.1,20.9 8.8,27.1 C9.7,28.2 10.7,29.2 11.8,30 C13.8,31.5 16,32.2 18.3,32.2 C19.2,32.2 20.2,32.1 21.2,31.8 C21.1,33.1 20.7,36.6 19,38 C16.8,39.8 12.7,44.2 11,47.1 C9.4,47.3 5,48 4.8,49.6 C4.8,49.9 4.9,50.2 5.4,50.6 C6.3,51.2 8.3,51.5 10.4,51.5 C12.9,51.5 15.6,51 17.3,50 C18,49.5 18.9,49.1 19.8,48.6 C23.3,46.7 27.6,44.4 29.2,39.5 C29.4,39.7 29.7,39.9 29.9,40.1 C29.9,40.1 30,40.2 30,40.2 C29.8,41.5 29.6,42.7 29.3,43.6 C28.2,46.7 26.9,52.3 26.5,55.4 C25.4,55.3 22.1,55.3 19.6,58.4 C19.2,58.9 19.2,59.4 19.4,59.7 C20.1,61.2 24.2,61.7 26.7,61.7 C28.3,61.7 32,61.5 32.8,59.8 C33,59.5 33.2,59.1 33.4,58.6 C34.9,55.6 37.9,49.7 39.2,45.5 C39.2,45.5 39.3,45.6 39.3,45.6 C41.1,46.2 42.9,46.7 44.5,47 C45.2,48.8 46,49.9 47.2,50.8 C48.2,51.5 49.5,51.8 51.2,51.8 C52.6,51.8 54.4,51.6 56.5,51.1 C58.3,51.5 60.1,51.7 61.5,51.7 C62.3,51.7 63,51.6 63.5,51.5 L64.6,51.1 C65.9,52.4 67.3,53.3 68.7,53.5 C69,53.5 69.3,53.6 69.7,53.6 C69.7,53.6 69.7,53.6 69.7,53.6 C73.8,53.6 79.9,50.7 82,49.1 C82.3,49.8 82.7,51.4 81.8,53 C81.3,53.8 81.5,54.4 81.7,54.8 C82.1,55.5 83.1,55.9 84.3,55.9 C85.5,55.9 86.8,55.5 87.6,54.8 C90,52.7 90.1,50.4 90,48.6 Z M54.1,20.4 C54.2,20.6 54.4,20.9 54.5,21.2 C54.2,21.1 53.8,21.1 53.5,21 C53.6,20.6 53.9,20.5 54.1,20.4 Z M1.1,4.9 C1.9,5.4 3,5.9 4,5.9 C5,5.9 5.8,5.4 6.3,4.6 C6.9,3.6 7.6,3 8.6,2.9 C8.9,2.9 9.2,3 9.4,3.2 C9.6,3.4 9.6,3.7 9.5,4 C9.4,4.4 9.2,4.8 9,5.1 C7.7,7 6,8.1 4.6,8.1 C3.1,8 1.9,6.9 1.1,4.9 Z M12.2,29.3 C11.1,28.5 10.2,27.6 9.3,26.5 C9.3,26.5 9.3,26.5 9.2,26.5 L9.2,26.5 C2.7,20.5 1,14.7 4,8.8 C4.2,8.8 4.3,8.8 4.5,8.8 C6.2,8.8 8.1,7.6 9.6,5.5 C9.9,5.1 10.1,4.7 10.2,4.2 C10.3,3.8 10.3,3.4 10.1,3.1 C10.1,3.1 10.2,3.1 10.2,3.1 C19.5,-2.6 25.8,6.4 27,8.2 C27,8.2 27.1,8.3 27.1,8.3 L27.4,8.5 C27.5,8.6 27.8,8.6 27.9,8.5 C28.8,7.7 30.2,7.8 31.2,8.8 C31.7,9.3 32,9.9 32.1,10.6 C32.2,11.2 32,11.8 31.6,12.2 C31.5,12.3 31.3,12.5 31.1,12.6 C30.9,12.7 30.8,12.9 30.9,13.1 C32.5,16.8 31.9,21.2 29.1,25 C26.9,28.1 24.1,30.2 21.3,31.1 C18.1,31.9 15,31.3 12.2,29.3 Z M19.5,47.8 C18.6,48.3 17.7,48.8 17,49.3 C14.1,51.2 7.5,50.9 5.9,49.9 C5.7,49.8 5.6,49.7 5.6,49.6 C5.7,48.9 8.6,48.1 11.3,47.8 C11.4,47.8 11.5,47.7 11.6,47.6 C13.2,44.9 17.3,40.3 19.5,38.6 C21.6,36.9 22,32.7 22,31.6 C22.4,31.5 22.8,31.3 23.2,31.1 C24.9,34.4 26.6,36.8 28.7,38.9 C27.2,43.6 22.9,45.9 19.5,47.8 Z M32.7,58.3 C32.5,58.8 32.3,59.2 32.1,59.5 C31.7,60.4 29.5,60.9 26.7,60.9 C23.2,60.9 20.4,60.1 20.1,59.3 C20.1,59.2 20,59.1 20.2,58.8 C22.1,56.4 24.6,56 25.9,56 C26.4,56 26.8,56.1 26.8,56.1 C26.9,56.1 27,56.1 27.1,56 C27.2,55.9 27.2,55.8 27.3,55.7 C27.5,52.8 28.9,46.8 30.1,43.7 C31.3,40.3 31.2,33.2 31.2,32.9 C31.2,32.9 31.2,32.8 31.2,32.8 C31.2,32.8 30.6,29.9 32.1,28 C33,26.9 34.4,26.4 36.3,26.4 C37.5,26.4 38.4,26.8 39,27.6 C41.3,30.4 40,37.4 39.3,41.7 C39.2,42.3 39.1,42.8 39,43.3 C38.2,47.4 34.5,54.7 32.7,58.3 Z M39.3,44.8 C39.4,44.3 39.5,43.8 39.6,43.4 C39.7,42.9 39.8,42.4 39.9,41.8 C40.7,37.5 42,30.2 39.5,27.1 C38.7,26.1 37.6,25.6 36.2,25.6 C34,25.6 32.4,26.2 31.4,27.5 C29.8,29.5 30.3,32.5 30.4,32.9 C30.4,33.3 30.4,36.2 30.2,39.1 C29.9,38.9 29.7,38.7 29.5,38.4 C29.5,38.3 29.4,38.2 29.3,38.2 C27.2,36.2 25.6,33.9 23.9,30.6 C26.1,29.4 28.1,27.6 29.8,25.2 C31.2,23.2 32.1,21.1 32.5,18.9 C35.1,19.2 50.8,21 54.9,21.9 C56.1,25.7 56.3,32.2 55,36.2 C53.6,40.6 49.2,45.7 48.4,46.6 C46.8,46.5 43.1,46 39.6,44.8 C39.5,44.8 39.4,44.8 39.3,44.8 Z M47.6,50.1 C46.6,49.4 45.9,48.5 45.3,47.1 C46.5,47.3 47.6,47.4 48.3,47.5 C49.3,48.8 51.8,49.9 54.6,50.6 C51.2,51.2 48.9,51 47.6,50.1 Z M63.2,50.7 C61.8,51.1 59.3,50.9 56.7,50.3 C56.7,50.3 56.6,50.3 56.6,50.3 C53.4,49.6 50.1,48.4 49,47.1 C50,45.9 54.3,41 55.7,36.6 C57,32.4 56.8,25.6 55.5,21.7 C55.5,21.6 55.5,21.6 55.4,21.5 C55.3,21.2 55.2,20.9 55,20.6 L61,22.4 C61.1,22.4 73.8,26.8 72.1,37.9 L72,38.3 L71.7,37.3 C71.7,37.2 70.6,32 65.9,32 C65.1,32 64.2,32.2 63.3,32.5 C60.5,33.5 58.8,35.7 58.5,39.1 C58.3,41.6 59,44.2 60.6,46.4 C61.5,47.7 62.7,49.2 63.9,50.5 L63.2,50.7 Z M87,54.1 C86.3,54.7 85.2,55 84.2,55 C83.3,55 82.5,54.7 82.3,54.3 C82.1,54 82.2,53.7 82.4,53.3 C83.8,50.7 82.5,48.3 82.4,48.2 C82.3,48.1 82.2,48 82.1,48 C82.1,48 82.1,48 82,48 C81.9,48 81.8,48 81.7,48.1 C80.3,49.4 73.8,52.7 69.6,52.7 C69.3,52.7 69,52.7 68.7,52.6 C66,52.2 62.9,48.2 61.2,45.8 C59.8,43.7 59.1,41.3 59.3,39 C59.6,35.9 61,34 63.6,33.1 C64.4,32.8 65.2,32.7 66,32.7 C70.1,32.7 71,37.2 71.1,37.4 L72.4,42.6 C72.4,42.7 72.5,42.8 72.6,42.9 C72.7,42.9 72.8,42.9 72.9,42.9 C74.2,42.2 76,41.9 78,41.9 C80.2,41.9 82.1,42.3 82.1,42.3 C82.2,42.3 82.2,42.3 82.3,42.3 L85.2,41.8 C85.5,41.7 85.7,41.7 86,41.7 C88.7,41.7 89,45.8 89.1,47.9 C89.1,48.1 89.1,48.4 89.2,48.6 C89.4,51.1 88.7,52.7 87,54.1 Z" id="Shape"></path>
        </g>
    </g>
</svg>