<?xml version="1.0" encoding="UTF-8"?>
<svg width="63px" height="90px" viewBox="0 0 63 90" version="1.1" xmlns="http://www.w3.org/2000/svg" xmlns:xlink="http://www.w3.org/1999/xlink">
    <!-- Generator: Sketch 44 (41411) - http://www.bohemiancoding.com/sketch -->
    <title>stage4</title>
    <desc>Created with Sketch.</desc>
    <defs></defs>
    <g id="Page-1" stroke="none" stroke-width="1" fill="none" fill-rule="evenodd">
        <g id="stage4" fill-rule="nonzero" fill="#FFFFFF">
            <path d="M61.0714286,53.5 C60.3714286,53.1 59.5714286,53.1 58.8714286,53.4 C57.4714286,54 56.3714286,55.7 55.5714286,58.2 C55.4714286,58.1 55.2714286,58 55.0714286,58 L51.6714286,57.3 C51.4714286,57.2 49.2714286,56.4 44.9714286,55.2 C38.7714286,53.5 36.5714286,52.8 35.9714286,52.7 L35.9714286,51.3 C35.9714286,51.3 35.9714286,51.3 35.9714286,51.3 C35.9714286,51.3 35.9714286,51.3 35.9714286,51.3 C35.9714286,50.7 35.8714286,49.9 35.8714286,49.3 C36.1714286,49.4 36.4714286,49.4 36.6714286,49.5 C36.7714286,49.5 36.8714286,49.5 36.9714286,49.5 C38.6714286,49.5 40.4714286,48.4 40.8714286,47.1 C41.6714286,44.5 39.1714286,39.4 37.5714286,36.5 C35.7714286,33.3 32.6714286,32.7 32.1714286,32.6 C31.3714286,32.1 29.1714286,31.3 27.9714286,31 C28.1714286,30.9 28.3714286,30.7 28.5714286,30.6 C31.0714286,28.7 32.3714286,25.9 32.3714286,22.6 C32.3714286,21.3 32.1714286,20.1 31.7714286,18.9 C31.1714286,14.1 28.8714286,6 20.8714286,5.4 C21.1714286,4.3 21.0714286,2.7 19.2714286,0.5 C19.3714286,0 19.2714286,0 19.0714286,0 C18.9714286,0.1 18.8714286,0.2 18.8714286,0.3 C18.8714286,0.3 18.9714286,2.8 17.9714286,3.8 C17.6714286,4.2 17.1714286,4.3 16.6714286,4.3 C16.4714286,4.3 16.3714286,4.3 16.1714286,4.3 C15.1714286,4.3 14.2714286,4.7 13.5714286,5.3 C13.2714286,5.6 13.1714286,6 13.1714286,6.4 C3.47142857,10.5 6.77142857,20.3 7.67142857,22.4 C6.47142857,22.8 5.67142857,24.2 5.87142857,25.7 C6.17142857,27.4 7.57142857,28.5 8.97142857,28.3 C9.17142857,28.3 9.27142857,28.2 9.47142857,28.2 C10.4714286,29.8 11.9714286,31.1 13.6714286,31.9 C12.9714286,32.2 11.9714286,32.6 11.2714286,33.3 C10.6714286,33.5 6.97142857,34.7 5.77142857,39.1 C4.97142857,42 5.37142857,47.1 7.57142857,50.3 C8.07142857,51 8.57142857,51.6 9.17142857,52.1 C9.17142857,52.2 9.17142857,52.2 9.17142857,52.3 C9.37142857,53.2 9.87142857,54.6 10.2714286,55.4 C8.57142857,56.4 1.37142857,60.7 0.171428571,65.7 C-0.228571429,67.4 0.0714285714,68.9 1.07142857,70.4 L5.77142857,75.5 L8.57142857,79.1 C8.77142857,79.3 8.97142857,79.4 9.27142857,79.4 C9.37142857,79.4 9.37142857,79.4 9.47142857,79.4 C9.67142857,80.2 10.1714286,82 9.67142857,83.5 C9.57142857,83.9 9.37142857,84.2 9.17142857,84.6 C8.57142857,85.7 7.97142857,87 8.47142857,88.1 C8.77142857,88.8 9.47142857,89.4 10.6714286,89.8 C10.9714286,89.9 11.2714286,90 11.5714286,90 C12.2714286,90 13.0714286,89.7 13.8714286,89 C16.5714286,86.8 18.5714286,81.4 18.3714286,80.1 C18.0714286,77.7 16.6714286,75.8 16.2714286,75.2 C16.3714286,75 16.3714286,74.7 16.2714286,74.4 L14.8714286,71.5 C14.1714286,69.8 13.1714286,67.1 13.3714286,66.5 C13.6714286,65.7 17.1714286,63.4 25.7714286,63.2 C26.5714286,63.2 27.3714286,63.2 28.0714286,63.2 L28.0714286,67.1 C28.0714286,67.1 28.0714286,67.1 28.0714286,67.1 L23.8714286,69 C23.8714286,69 23.8714286,69 23.8714286,69 L23.8714286,69 C23.8714286,69 23.8714286,69 23.8714286,69 C23.7714286,69 23.7714286,69.1 23.7714286,69.1 C23.7714286,69.1 23.7714286,69.1 23.7714286,69.1 C23.7714286,69.2 23.7714286,69.2 23.7714286,69.3 L23.7714286,75.3 C23.7714286,75.5 23.8714286,75.6 23.9714286,75.6 L30.7714286,77.7 C30.7714286,77.7 30.8714286,77.7 30.8714286,77.7 C30.9714286,77.7 30.9714286,77.7 31.0714286,77.7 L39.4714286,73.6 C39.5714286,73.5 39.6714286,73.4 39.6714286,73.3 L39.6714286,67.4 C39.6714286,67.4 39.6714286,67.4 39.6714286,67.4 C39.6714286,67.4 39.6714286,67.4 39.6714286,67.4 C39.6714286,67.4 39.6714286,67.4 39.6714286,67.4 C39.6714286,67.3 39.6714286,67.3 39.5714286,67.2 C39.5714286,67.2 39.5714286,67.2 39.5714286,67.2 C39.5714286,67.2 39.4714286,67.1 39.3714286,67.1 C39.3714286,67.1 39.3714286,67.1 39.3714286,67.1 L35.4714286,66.2 L35.4714286,63.3 C37.3714286,63.4 38.9714286,63.6 41.4714286,64 C44.6714286,64.5 47.3714286,65.5 48.0714286,65.8 C48.0714286,65.9 48.1714286,66.1 48.2714286,66.1 L52.5714286,67.4 C52.6714286,67.4 52.7714286,67.5 52.8714286,67.5 C53.3714286,67.5 53.8714286,67.2 53.9714286,66.7 C54.4714286,66.7 55.5714286,66.8 56.5714286,67.4 C56.9714286,67.7 57.5714286,67.9 58.2714286,67.9 C58.6714286,67.9 59.0714286,67.8 59.4714286,67.7 C60.4714286,67.2 61.7714286,66 62.2714286,62.4 C62.3714286,61.4 62.5714286,60.5 62.6714286,59.7 C63.0714286,56.1 63.2714286,54.7 61.0714286,53.5 Z M27.2714286,52.3 L31.7714286,53.2 L31.7714286,61.6 L27.2714286,60.5 L27.2714286,52.3 Z M32.0714286,52.5 L28.0714286,51.7 L30.4714286,50.5 L34.3714286,51.3 L32.0714286,52.5 Z M28.9714286,61.7 L31.9714286,62.4 C31.9714286,62.4 32.0714286,62.4 32.0714286,62.4 C32.0714286,62.4 32.0714286,62.4 32.0714286,62.4 C32.0714286,62.4 32.0714286,62.4 32.0714286,62.4 C32.0714286,62.4 32.0714286,62.4 32.0714286,62.4 C32.1714286,62.4 32.1714286,62.4 32.2714286,62.4 C32.2714286,62.4 32.2714286,62.4 32.2714286,62.4 L34.6714286,61 L34.6714286,67.3 C34.6714286,67.4 34.6714286,67.6 34.5714286,67.7 C34.2714286,68.2 33.5714286,69 31.8714286,69 C30.1714286,69 29.4714286,68.3 29.1714286,67.9 C29.0714286,67.8 29.0714286,67.6 29.0714286,67.5 L29.0714286,61.7 L28.9714286,61.7 Z M32.4714286,61.4 L32.4714286,53.1 L35.4714286,51.6 L35.4714286,59.7 L32.4714286,61.4 Z M37.0714286,36.7 C38.2714286,38.9 41.0714286,44.3 40.2714286,46.7 C39.9714286,47.7 38.3714286,48.7 36.7714286,48.6 C36.3714286,48.6 36.0714286,48.5 35.7714286,48.3 C35.7714286,48.3 35.6714286,48.2 35.6714286,48.2 C34.9714286,47.8 34.3714286,47 34.0714286,45.9 C34.5714286,46.2 35.0714286,46.5 35.6714286,46.6 C35.9714286,46.7 36.1714286,46.7 36.4714286,46.7 C37.3714286,46.7 38.1714286,46.4 38.6714286,45.7 C39.1714286,45.1 39.3714286,44.2 39.2714286,43.3 C39.1714286,42.3 38.6714286,41.3 37.8714286,40.6 L38.1714286,38.9 C38.1714286,38.8 38.1714286,38.7 38.0714286,38.6 L35.9714286,37 C35.9714286,37 35.9714286,37 35.9714286,37 C35.9714286,37 35.8714286,36.9 35.8714286,36.9 L34.0714286,36.5 C33.8714286,35 33.3714286,34 33.0714286,33.4 C34.0714286,33.7 35.9714286,34.6 37.0714286,36.7 Z M21.0714286,47.8 C20.2714286,47.2 17.6714286,44.8 18.1714286,42.1 C18.6714286,41.5 21.5714286,39.1 23.3714286,37.6 C23.3714286,37.6 23.4714286,37.5 23.4714286,37.5 C23.8714286,36.7 24.5714286,35.8 25.7714286,34.9 C25.7714286,34.9 27.9714286,32.9 30.6714286,33.6 C31.7714286,33.9 32.4714286,34.7 32.4714286,35.6 C32.4714286,36.4 31.8714286,37.1 31.1714286,37.3 C30.0714286,37.5 29.5714286,38.2 29.0714286,38.9 C28.5714286,39.6 28.0714286,40.3 26.9714286,40.6 C26.7714286,40.6 26.7714286,40.6 26.2714286,41.4 C25.3714286,42.7 23.2714286,45.7 21.0714286,47.8 Z M33.1714286,35.5 C33.2714286,35.7 33.2714286,36 33.3714286,36.3 L33.1714286,36.2 C33.1714286,36 33.2714286,35.9 33.2714286,35.7 C33.1714286,35.7 33.1714286,35.6 33.1714286,35.5 Z M32.7714286,36.9 L35.3714286,37.5 L35.0714286,39.1 L31.1714286,38 C31.1714286,38 31.1714286,38 31.1714286,38 C31.8714286,37.9 32.4714286,37.5 32.7714286,36.9 Z M37.1714286,40.8 L35.7714286,39.4 L36.0714286,37.9 L37.5714286,39.1 L37.1714286,40.8 Z M30.2714286,38.5 L35.1714286,39.8 L36.1714286,40.8 L29.7714286,39.1 C29.9714286,38.9 30.1714286,38.7 30.2714286,38.5 Z M34.0714286,41 L37.3714286,41.9 C37.3714286,41.9 37.3714286,41.9 37.3714286,41.9 C37.3714286,41.9 37.3714286,41.9 37.3714286,41.9 C37.3714286,41.9 37.3714286,41.9 37.4714286,41.9 C37.4714286,41.9 37.4714286,41.9 37.4714286,41.9 C37.4714286,41.9 37.4714286,41.9 37.4714286,41.9 C37.4714286,41.9 37.4714286,41.9 37.4714286,41.9 C37.5714286,41.9 37.5714286,41.9 37.6714286,41.9 C37.6714286,41.9 37.6714286,41.9 37.6714286,41.9 C37.6714286,41.9 37.7714286,41.8 37.7714286,41.8 C37.7714286,41.8 37.7714286,41.8 37.7714286,41.8 C37.7714286,41.8 37.7714286,41.8 37.7714286,41.8 C37.7714286,41.8 37.7714286,41.8 37.7714286,41.7 C38.2714286,42.3 38.5714286,42.9 38.6714286,43.7 C38.7714286,44.4 38.5714286,45.1 38.1714286,45.5 C37.6714286,46.1 36.7714286,46.3 35.8714286,46.1 C34.7714286,45.9 33.3714286,45 32.9714286,43.6 C32.6714286,42.5 33.0714286,41.6 34.0714286,41 Z M31.9714286,33 C32.0714286,33.1 32.3714286,33.4 32.6714286,34.1 C32.2714286,33.6 31.7714286,33.2 30.8714286,33 C27.7714286,32.2 25.4714286,34.3 25.3714286,34.4 C24.1714286,35.4 23.3714286,36.3 22.8714286,37.2 C22.1714286,37.8 18.1714286,40.9 17.5714286,41.8 L16.1714286,42.7 L16.1714286,40.8 C16.1714286,38.1 14.8714286,35.6 12.6714286,34 L12.1714286,33.6 C13.0714286,32.8 14.4714286,32.4 14.7714286,32.4 C16.1714286,32.9 17.7714286,33.2 19.4714286,33.2 C19.5714286,33.2 19.5714286,33.2 19.6714286,33.2 C22.5714286,33.2 25.1714286,32.5 27.2714286,31.3 C28.4714286,31.7 31.1714286,32.6 31.9714286,33 Z M14.1714286,5.9 C14.6714286,5.4 15.3714286,5.1 16.1714286,5.1 C16.2714286,5.1 16.4714286,5.1 16.5714286,5.1 C17.3714286,5.2 17.9714286,4.9 18.4714286,4.4 C19.1714286,3.6 19.4714286,2.3 19.4714286,1.4 C20.4714286,2.9 20.6714286,4.2 20.1714286,5.2 C19.5714286,6.5 17.7714286,7.3 15.4714286,7.3 C15.0714286,7.3 14.7714286,7.2 14.3714286,7.1 C14.0714286,7 13.9714286,6.8 13.8714286,6.6 C13.8714286,6.3 13.9714286,6 14.1714286,5.9 Z M9.97142857,27.6 C9.87142857,27.4 9.67142857,27.4 9.47142857,27.5 C9.27142857,27.6 9.07142857,27.7 8.97142857,27.7 C7.87142857,27.9 6.87142857,27 6.67142857,25.7 C6.47142857,24.5 7.17142857,23.3 8.17142857,23.1 C8.37142857,23.1 8.47142857,22.9 8.47142857,22.7 L8.47142857,22.4 C8.47142857,22.4 8.47142857,22.3 8.47142857,22.3 C7.67142857,20.4 4.37142857,11 13.4714286,7.1 C13.6714286,7.4 13.9714286,7.6 14.2714286,7.7 C14.6714286,7.8 15.1714286,7.9 15.5714286,7.9 C17.9714286,7.9 19.9714286,7 20.7714286,5.7 C20.7714286,5.7 20.8714286,5.7 20.8714286,5.7 C28.4714286,6.2 30.6714286,13.9 31.2714286,18.6 C31.2714286,18.6 31.2714286,18.7 31.2714286,18.7 C31.6714286,19.9 31.8714286,21.1 31.8714286,22.3 C31.8714286,25.4 30.6714286,28 28.3714286,29.8 C26.2714286,31.4 23.1714286,32.4 19.7714286,32.4 C18.0714286,32.4 16.4714286,32.1 14.9714286,31.6 C12.8714286,30.8 11.1714286,29.4 9.97142857,27.6 Z M8.27142857,49.9 C6.07142857,46.6 5.97142857,41.6 6.57142857,39.3 C7.57142857,35.5 10.7714286,34.2 11.4714286,34 L12.2714286,34.5 C14.2714286,35.9 15.4714286,38.3 15.4714286,40.7 L15.4714286,43.3 C15.4714286,43.4 15.5714286,43.5 15.6714286,43.6 C15.7714286,43.7 15.9714286,43.7 16.0714286,43.6 L17.3714286,42.7 C17.2714286,45.4 19.6714286,47.6 20.5714286,48.3 L17.4714286,51 C16.0714286,52.2 14.2714286,52.8 12.5714286,52.6 C10.7714286,52.4 9.37142857,51.5 8.27142857,49.9 Z M12.4714286,53.3 C12.6714286,53.3 12.9714286,53.3 13.1714286,53.3 C14.8714286,53.3 16.4714286,52.7 17.8714286,51.5 L21.3714286,48.5 C21.3714286,48.5 21.3714286,48.5 21.3714286,48.5 C21.3714286,48.5 21.3714286,48.5 21.3714286,48.5 C23.6714286,46.3 25.8714286,43.1 26.8714286,41.8 C27.0714286,41.6 27.1714286,41.4 27.2714286,41.3 C28.3714286,41 28.9714286,40.4 29.3714286,39.8 L33.1714286,40.8 C32.2714286,41.6 31.9714286,42.6 32.2714286,43.7 C32.4714286,44.3 32.7714286,44.8 33.1714286,45.3 C33.4714286,47.4 34.3714286,48.4 35.2714286,48.9 C35.3714286,49.5 35.3714286,50.3 35.3714286,50.9 L30.4714286,49.9 C30.3714286,49.9 30.2714286,49.9 30.2714286,49.9 L26.7714286,51.6 C26.7714286,51.6 26.7714286,51.6 26.7714286,51.6 C26.6714286,51.6 26.6714286,51.7 26.6714286,51.7 C26.6714286,51.7 26.6714286,51.7 26.6714286,51.7 C26.6714286,51.7 26.6714286,51.8 26.6714286,51.9 L26.6714286,58.1 C19.6714286,58.3 14.0714286,58.2 11.3714286,55.2 C11.0714286,54.9 10.5714286,53.6 10.2714286,52.5 C10.8714286,52.9 11.5714286,53.2 12.4714286,53.3 Z M13.4714286,88.5 C12.5714286,89.2 11.7714286,89.5 10.9714286,89.2 C9.97142857,88.9 9.47142857,88.4 9.27142857,87.9 C8.97142857,87.1 9.47142857,86 9.97142857,84.9 C10.1714286,84.5 10.3714286,84.1 10.4714286,83.7 C11.1714286,81.9 10.4714286,79.7 10.2714286,79 C12.4714286,76.8 14.5714286,76 15.7714286,75.7 C15.7714286,75.7 15.7714286,75.7 15.8714286,75.7 C16.3714286,76.3 17.5714286,78.1 17.8714286,80.2 C17.9714286,81.2 16.0714286,86.4 13.4714286,88.5 Z M15.6714286,75 C15.6714286,75 15.6714286,75.1 15.5714286,75.1 C14.3714286,75.4 11.9714286,76.3 9.67142857,78.7 C9.67142857,78.7 9.67142857,78.7 9.67142857,78.7 C9.67142857,78.7 9.67142857,78.7 9.67142857,78.7 C9.57142857,78.8 9.47142857,78.9 9.37142857,78.7 L6.77142857,75.3 C7.47142857,74.6 10.0714286,72 13.5714286,72 C13.8714286,72 14.1714286,72 14.3714286,72 L15.6714286,74.7 C15.7714286,74.9 15.7714286,74.9 15.6714286,75 Z M25.9714286,62.6 C17.7714286,62.8 13.3714286,64.9 12.8714286,66.4 C12.5714286,67.4 13.5714286,70.1 14.1714286,71.4 C13.9714286,71.4 13.8714286,71.4 13.6714286,71.4 C9.87142857,71.4 7.17142857,73.9 6.37142857,74.8 L1.97142857,70 C1.07142857,68.7 0.771428571,67.3 1.17142857,65.9 C2.27142857,61.1 9.57142857,56.8 10.9714286,56 C13.4714286,58.5 17.5714286,59 22.8714286,59 C24.0714286,59 25.2714286,59 26.5714286,58.9 L26.5714286,60.9 C26.5714286,61.1 26.6714286,61.2 26.8714286,61.2 L28.2714286,61.5 C28.2714286,61.5 28.2714286,61.5 28.2714286,61.5 L28.2714286,62.5 C27.5714286,62.6 26.7714286,62.6 25.9714286,62.6 Z M24.3714286,69.8 L30.4714286,71.9 L30.4714286,77 L24.3714286,75.1 L24.3714286,69.8 Z M31.1714286,76.9 L31.1714286,71.9 L38.8714286,68.1 L38.8714286,73.2 L31.1714286,76.9 Z M38.1714286,67.6 L30.7714286,71.3 L24.9714286,69.3 L28.2714286,67.9 C28.2714286,68 28.3714286,68.1 28.4714286,68.2 C28.7714286,68.8 29.6714286,69.7 31.7714286,69.7 C33.8714286,69.7 34.7714286,68.6 35.1714286,68 C35.2714286,67.8 35.3714286,67.5 35.3714286,67.2 L35.3714286,67 L38.1714286,67.6 Z M35.3714286,62.6 L35.3714286,60.6 L35.9714286,60.3 C36.0714286,60.2 36.1714286,60.1 36.1714286,60 L36.1714286,53.4 C37.0714286,53.7 39.3714286,54.3 44.9714286,55.9 C48.0714286,56.8 50.0714286,57.4 50.9714286,57.7 C49.3714286,59.2 48.3714286,63.5 48.0714286,65.1 C47.1714286,64.7 44.5714286,63.8 41.4714286,63.3 C38.8714286,62.9 37.2714286,62.7 35.3714286,62.6 Z M52.6714286,66.7 L48.6714286,65.5 C49.0714286,63.4 50.2714286,58.8 51.7714286,57.9 L55.0714286,58.6 C55.2714286,58.6 55.3714286,58.7 55.4714286,58.9 C55.5714286,59 55.5714286,59.2 55.4714286,59.4 C54.7714286,60.7 53.6714286,63.4 53.3714286,66.3 C53.2714286,66.5 52.9714286,66.8 52.6714286,66.7 Z M61.8714286,59.5 C61.7714286,60.3 61.5714286,61.2 61.4714286,62.2 C61.0714286,65.4 59.9714286,66.6 59.0714286,66.9 C58.2714286,67.3 57.3714286,67 56.8714286,66.7 C55.7714286,66 54.5714286,65.8 53.9714286,65.8 C54.2714286,63.2 55.2714286,60.8 55.9714286,59.6 C56.0714286,59.4 56.0714286,59.1 56.0714286,58.9 C56.0714286,58.9 56.0714286,58.9 56.0714286,58.9 C56.7714286,56.3 57.8714286,54.5 59.1714286,53.9 C59.7714286,53.7 60.2714286,53.7 60.7714286,54 C62.4714286,55.1 62.3714286,56.1 61.8714286,59.5 Z" id="Shape"></path>
            <path d="M56.7,76.6 C56.7,76.5 56.6,76.5 56.6,76.5 C56.6,76.5 56.6,76.5 56.6,76.5 L56.6,76.5 C56.6,76.5 56.6,76.5 56.6,76.5 L48.4,73 C48.3,73 48.3,73 48.2,73 L41.2,74.6 C41.2,74.6 41.2,74.6 41.2,74.6 C41.2,74.6 41.2,74.6 41.1,74.6 C41.1,74.6 41.1,74.6 41.1,74.6 C41.1,74.6 41.1,74.6 41.1,74.7 C41.1,74.7 41.1,74.8 41,74.8 C41,74.8 41,74.8 41,74.8 C41,74.8 41,74.8 41,74.8 C41,74.8 41,74.8 41,74.8 L41,80.7 C41,80.8 41.1,81 41.2,81 L49.6,85.1 C49.6,85.1 49.7,85.1 49.8,85.1 C49.8,85.1 49.9,85.1 49.9,85.1 L56.7,83 C56.8,83 56.9,82.8 56.9,82.7 L56.9,76.7 C56.8,76.7 56.8,76.6 56.7,76.6 C56.7,76.6 56.7,76.6 56.7,76.6 Z M48.3,73.6 L55.5,76.7 L49.7,78.7 L42.3,75 L48.3,73.6 Z M41.6,80.6 L41.6,75.5 L49.3,79.3 L49.3,84.3 L41.6,80.6 Z M50,84.4 L50,79.3 L56.1,77.2 L56.1,82.5 L50,84.4 Z" id="Shape"></path>
            <path d="M10.2,59 C9.5,59 9,59.5 9,60.2 C9,60.9 9.5,61.4 10.2,61.4 C10.9,61.4 11.4,60.9 11.4,60.2 C11.4,59.5 10.9,59 10.2,59 Z M10.2,60.7 C9.9,60.7 9.7,60.5 9.7,60.2 C9.7,59.9 9.9,59.7 10.2,59.7 C10.5,59.7 10.7,59.9 10.7,60.2 C10.7,60.5 10.5,60.7 10.2,60.7 Z" id="Shape"></path>
            <path d="M16.2,61 C15.5,61 15,61.5 15,62.2 C15,62.9 15.5,63.4 16.2,63.4 C16.9,63.4 17.4,62.9 17.4,62.2 C17.4,61.5 16.9,61 16.2,61 Z M16.2,62.7 C15.9,62.7 15.7,62.5 15.7,62.2 C15.7,61.9 15.9,61.7 16.2,61.7 C16.5,61.7 16.7,61.9 16.7,62.2 C16.7,62.5 16.5,62.7 16.2,62.7 Z" id="Shape"></path>
            <path d="M4.2,64 C3.5,64 3,64.5 3,65.2 C3,65.9 3.5,66.4 4.2,66.4 C4.9,66.4 5.4,65.9 5.4,65.2 C5.4,64.5 4.9,64 4.2,64 Z M4.2,65.7 C3.9,65.7 3.7,65.5 3.7,65.2 C3.7,64.9 3.9,64.7 4.2,64.7 C4.5,64.7 4.7,64.9 4.7,65.2 C4.7,65.5 4.5,65.7 4.2,65.7 Z" id="Shape"></path>
            <path d="M10.2,68 C9.5,68 9,68.5 9,69.2 C9,69.9 9.5,70.4 10.2,70.4 C10.9,70.4 11.4,69.9 11.4,69.2 C11.4,68.5 10.9,68 10.2,68 Z M10.2,69.7 C9.9,69.7 9.7,69.5 9.7,69.2 C9.7,68.9 9.9,68.7 10.2,68.7 C10.5,68.7 10.7,68.9 10.7,69.2 C10.7,69.5 10.5,69.7 10.2,69.7 Z" id="Shape"></path>
            <path d="M24.2,59 C23.5,59 23,59.5 23,60.2 C23,60.9 23.5,61.4 24.2,61.4 C24.9,61.4 25.4,60.9 25.4,60.2 C25.4,59.5 24.8,59 24.2,59 Z M24.2,60.7 C23.9,60.7 23.7,60.5 23.7,60.2 C23.7,59.9 23.9,59.7 24.2,59.7 C24.5,59.7 24.7,59.9 24.7,60.2 C24.7,60.5 24.4,60.7 24.2,60.7 Z" id="Shape"></path>
            <path d="M40.4,56.2 C40.4,55.5 39.9,55 39.2,55 C38.5,55 38,55.5 38,56.2 C38,56.9 38.5,57.4 39.2,57.4 C39.9,57.4 40.4,56.9 40.4,56.2 Z M38.7,56.2 C38.7,55.9 38.9,55.7 39.2,55.7 C39.5,55.7 39.7,55.9 39.7,56.2 C39.7,56.5 39.5,56.7 39.2,56.7 C38.9,56.7 38.7,56.5 38.7,56.2 Z" id="Shape"></path>
            <path d="M46.2,59.4 C46.9,59.4 47.4,58.9 47.4,58.2 C47.4,57.5 46.9,57 46.2,57 C45.5,57 45,57.5 45,58.2 C45,58.9 45.6,59.4 46.2,59.4 Z M46.2,57.7 C46.5,57.7 46.7,57.9 46.7,58.2 C46.7,58.5 46.5,58.7 46.2,58.7 C45.9,58.7 45.7,58.5 45.7,58.2 C45.7,57.9 46,57.7 46.2,57.7 Z" id="Shape"></path>
            <path d="M40.2,60 C39.5,60 39,60.5 39,61.2 C39,61.9 39.5,62.4 40.2,62.4 C40.9,62.4 41.4,61.9 41.4,61.2 C41.4,60.5 40.8,60 40.2,60 Z M40.2,61.7 C39.9,61.7 39.7,61.5 39.7,61.2 C39.7,60.9 39.9,60.7 40.2,60.7 C40.5,60.7 40.7,60.9 40.7,61.2 C40.7,61.5 40.5,61.7 40.2,61.7 Z" id="Shape"></path>
            <path d="M46.2,61 C45.5,61 45,61.5 45,62.2 C45,62.9 45.5,63.4 46.2,63.4 C46.9,63.4 47.4,62.9 47.4,62.2 C47.4,61.5 46.9,61 46.2,61 Z M46.2,62.7 C45.9,62.7 45.7,62.5 45.7,62.2 C45.7,61.9 45.9,61.7 46.2,61.7 C46.5,61.7 46.7,61.9 46.7,62.2 C46.7,62.5 46.5,62.7 46.2,62.7 Z" id="Shape"></path>
        </g>
    </g>
</svg>