<?xml version="1.0" encoding="UTF-8"?>
<svg width="72px" height="90px" viewBox="0 0 72 90" version="1.1" xmlns="http://www.w3.org/2000/svg" xmlns:xlink="http://www.w3.org/1999/xlink">
    <!-- Generator: Sketch 44 (41411) - http://www.bohemiancoding.com/sketch -->
    <title>stage5</title>
    <desc>Created with Sketch.</desc>
    <defs></defs>
    <g id="Page-1" stroke="none" stroke-width="1" fill="none" fill-rule="evenodd">
        <g id="stage5" fill-rule="nonzero" fill="#FFFFFF">
            <path d="M51.7,66.7 C52.4,66.7 53,66.1 53,65.4 C53,64.7 52.4,64.1 51.7,64.1 C51,64.1 50.4,64.7 50.4,65.4 C50.4,66.1 51,66.7 51.7,66.7 Z M51.7,64.8 C52,64.8 52.2,65 52.2,65.3 C52.2,65.6 52,65.8 51.7,65.8 C51.4,65.8 51.2,65.6 51.2,65.3 C51.2,65 51.4,64.8 51.7,64.8 Z" id="Shape"></path>
            <path d="M57.3,70.8 C58,70.8 58.6,70.2 58.6,69.5 C58.6,68.8 58,68.2 57.3,68.2 C56.6,68.2 56,68.8 56,69.5 C56,70.2 56.6,70.8 57.3,70.8 Z M57.3,68.9 C57.6,68.9 57.8,69.1 57.8,69.4 C57.8,69.7 57.6,70 57.3,70 C57,70 56.8,69.8 56.8,69.5 C56.8,69.2 57,68.9 57.3,68.9 Z" id="Shape"></path>
            <path d="M51.7,73.2 C51.7,73.9 52.3,74.5 53,74.5 C53.7,74.5 54.3,73.9 54.3,73.2 C54.3,72.5 53.7,71.9 53,71.9 C52.3,71.9 51.7,72.4 51.7,73.2 Z M53.6,73.2 C53.6,73.5 53.4,73.7 53.1,73.7 C52.8,73.7 52.6,73.5 52.6,73.2 C52.6,72.9 52.8,72.7 53.1,72.7 C53.4,72.7 53.6,72.9 53.6,73.2 Z" id="Shape"></path>
            <path d="M57.6,75 C57.6,75.7 58.2,76.3 58.9,76.3 C59.6,76.3 60.2,75.7 60.2,75 C60.2,74.3 59.6,73.7 58.9,73.7 C58.2,73.7 57.6,74.3 57.6,75 Z M58.9,74.5 C59.2,74.5 59.4,74.7 59.4,75 C59.4,75.3 59.2,75.5 58.9,75.5 C58.6,75.5 58.4,75.3 58.4,75 C58.4,74.7 58.6,74.5 58.9,74.5 Z" id="Shape"></path>
            <path d="M19.5,60.2 C18.8,60.2 18.2,60.8 18.2,61.5 C18.2,62.2 18.8,62.8 19.5,62.8 C20.2,62.8 20.8,62.2 20.8,61.5 C20.8,60.8 20.2,60.2 19.5,60.2 Z M19.5,62.1 C19.2,62.1 19,61.9 19,61.6 C19,61.3 19.2,61.1 19.5,61.1 C19.8,61.1 20,61.3 20,61.6 C20,61.8 19.8,62.1 19.5,62.1 Z" id="Shape"></path>
            <path d="M26.2,63.1 C25.5,63.1 24.9,63.7 24.9,64.4 C24.9,65.1 25.5,65.7 26.2,65.7 C26.9,65.7 27.5,65.1 27.5,64.4 C27.5,63.7 26.9,63.1 26.2,63.1 Z M26.2,65 C25.9,65 25.7,64.8 25.7,64.5 C25.7,64.2 25.9,64 26.2,64 C26.5,64 26.7,64.2 26.7,64.5 C26.7,64.8 26.5,65 26.2,65 Z" id="Shape"></path>
            <path d="M19.5,64.1 C18.8,64.1 18.2,64.7 18.2,65.4 C18.2,66.1 18.8,66.7 19.5,66.7 C20.2,66.7 20.8,66.1 20.8,65.4 C20.8,64.7 20.2,64.1 19.5,64.1 Z M19.5,65.9 C19.2,65.9 19,65.7 19,65.4 C19,65.1 19.2,64.9 19.5,64.9 C19.8,64.9 20,65.1 20,65.4 C20,65.7 19.8,65.9 19.5,65.9 Z" id="Shape"></path>
            <path d="M69.8,52 C70.1,51.8 70.3,51.6 70.5,51.3 C71,50.6 71.5,49.5 71,47.6 C70,43.9 67.6,43.1 66.8,42.9 L64,34.2 C64,34.2 64,34.2 64,34.2 C64,34.2 64,34.2 64,34.1 C64,34.1 64,34.1 64,34 C64,34 64,34 63.9,34 C63.9,34 63.9,34 63.9,34 C63.9,34 63.9,34 63.9,34 C63.9,34 63.9,34 63.9,34 L60.8,33.1 C60.7,33.1 60.6,33.1 60.5,33.1 C59.7,33.4 58.9,33.8 57.9,34.1 L56.7,34 C55.8,33.2 54.6,32.7 53.9,32.4 C55.8,30.9 57.2,29 58,26.7 C58.2,26.7 58.4,26.7 58.5,26.7 C59.3,26.6 60,26.2 60.5,25.5 C61,24.8 61.2,24 61.1,23.1 C60.9,21.5 59.7,20.2 58.3,20.2 C58.6,17.7 59.2,6.5 48,5 C48,5 47.9,5 47.9,5 C47.8,4.6 47.6,4.2 47.2,4 C46.2,3.4 45,3.3 43.7,3.8 C43.4,4 43.2,4 42.9,4 C40.9,4 40.1,0.3 40.1,0.3 C40.1,0.1 40,0 39.8,0 C39.6,0 39.5,0.1 39.4,0.2 C38.1,3.2 38.6,4.9 39.2,5.8 C31,8.9 31,18 31.7,23.2 C31.7,24.6 31.8,26 32.2,27.3 C32.8,29.5 33.8,31.2 35.2,32.6 C34.5,32.9 34.4,32.9 34.1,33.1 L34,33.1 C33.4,33.2 30,33.9 28.1,37.4 L27.5,38.7 C20.2,33.2 14.5,31.1 14.4,31.1 C14.2,31 14.1,31.1 14,31.2 C13.9,31.3 13.9,31.5 14,31.6 L15,33.4 L12.8,32.1 C12.7,32 12.5,32 12.4,32.1 L9.2,34.3 L8.7,34 C8.6,33.9 8.4,33.9 8.2,34.1 C8.1,34.2 8.1,34.4 8.1,34.6 L12.1,42 C11.7,42.1 11.2,42.3 10.8,42.8 C10.2,43.6 10,44.8 10.4,46.4 C11.1,49.5 13.2,49.8 14.1,49.8 C14.1,49.8 14.1,49.8 14.1,49.8 C14.8,49.8 15.4,49.6 15.9,49.4 L18.2,52.9 C18.2,52.9 18.3,53 18.3,53 L23.8,56.6 C23.4,56.7 22.9,56.9 22.4,57.1 C21.6,57.4 20.8,57.6 20.1,57.8 C17.5,58.5 13.9,59.7 12.9,60 L9.2,60.8 C8.9,60.9 8.7,61 8.6,61.2 C8,58.6 6.7,56.7 5.1,56 C4.3,55.6 3.4,55.6 2.7,56 C0.4,57.3 0.6,58.9 1.1,62.7 C1.2,63.6 1.4,64.5 1.5,65.7 C2,69.6 3.4,71 4.5,71.5 C4.9,71.7 5.4,71.8 5.8,71.8 C6.5,71.8 7.2,71.5 7.6,71.2 C8.7,70.5 9.9,70.4 10.5,70.4 C10.7,70.9 11.2,71.3 11.7,71.3 C11.8,71.3 12,71.3 12.1,71.2 L16.8,69.8 C16.8,69.8 16.8,69.8 16.8,69.8 C16.8,69.8 16.8,69.8 16.8,69.8 C17.2,69.7 17.7,69.5 18.1,69.3 C20.1,68.6 22.5,67.8 24.2,67.5 C29.3,66.7 31.8,66.6 38.9,66.7 L40.6,67.8 C40.6,67.8 40.6,67.8 40.6,67.8 C40.6,67.8 40.6,67.8 40.7,67.8 C40.7,67.8 40.8,67.8 40.8,67.8 C40.9,67.8 40.9,67.8 41,67.8 C41,67.8 41,67.8 41,67.8 L42.8,66.9 C47,68 48.1,71.1 49.8,75.8 C50.6,78 51.4,80.4 52.7,83.2 L53.6,86.4 C53.8,87.1 54.2,87.6 54.6,87.9 C54.7,88 54.9,88 55,88 C55.1,88.3 55.3,88.6 55.5,88.8 C56.1,89.6 56.8,90 57.7,90 C57.7,90 57.8,90 57.8,90 C61.1,89.9 65.2,86.5 66.3,81.1 C66.5,80.7 67.2,78.8 64.2,76.6 C64.2,76.6 63.5,76 62.4,76 C62.4,76 62.3,76 62.3,76 C62.3,76 62.3,76 62.3,75.9 C62,73.8 61.6,71.4 61.1,69.1 C60.5,65.9 59.5,62.7 58.8,60.8 L70.8,56.4 C71,56.3 71.1,56.1 71,55.9 L69.8,52 Z M67.1,43.8 C68,44.1 69.5,45 70.2,47.8 C70.5,49.1 70.4,50.1 69.8,50.8 C69.2,51.6 68.1,51.9 67.5,51.9 C67.2,51.9 66.9,51.8 66.7,51.7 C66.3,51.4 65.8,50.7 65.8,49.5 C65.8,48.6 66,47 67.4,45.1 C67.4,45.1 67.4,45.1 67.4,45.1 C67.4,45.1 67.4,45 67.4,45 C67.4,45 67.4,45 67.4,45 C67.4,44.9 67.4,44.9 67.4,44.8 L67.1,43.8 Z M60.7,33.9 L62.5,34.4 L36,43.9 C40.2,40.6 46.8,38.5 52.7,36.7 C54.6,36.1 56.5,35.5 58.1,34.9 C58.1,34.9 58.1,34.9 58.1,34.9 C59,34.6 59.9,34.2 60.7,33.9 Z M42.8,66.1 C42.7,66.1 42.5,66.2 42.4,66.3 L41.1,67 L30.8,46.7 L34,45.4 L44.1,65.4 L42.8,66.1 Z M39.7,1.6 C40.2,2.9 41.1,4.8 42.9,4.8 C42.9,4.8 42.9,4.8 42.9,4.8 C43.2,4.8 43.5,4.7 43.9,4.6 C45,4.2 45.9,4.2 46.7,4.7 C46.9,4.8 47.1,5.1 47.1,5.4 C47.1,5.7 47,6 46.7,6.1 C46.4,6.3 46,6.5 45.6,6.6 C44.8,6.8 44,6.9 43.2,6.9 C41.6,6.9 40.4,6.4 39.8,5.5 C39.2,4.5 39.2,3.2 39.7,1.6 Z M32.9,27.1 C32.6,25.8 32.4,24.5 32.5,23.2 C32.5,23.2 32.5,23.2 32.5,23.1 C31.8,18.1 31.8,9.3 39.6,6.5 C39.7,6.5 39.7,6.5 39.7,6.4 C40.5,7.2 41.7,7.6 43.3,7.6 C44.1,7.6 45,7.5 45.9,7.2 C46.4,7.1 46.8,6.9 47.2,6.6 C47.5,6.4 47.8,6.1 47.9,5.7 C47.9,5.7 47.9,5.7 47.9,5.7 C58.6,7.1 57.8,18 57.5,20.1 C57.5,20.1 57.5,20.2 57.5,20.2 L57.6,20.5 C57.6,20.7 57.8,20.8 58,20.8 C59.2,20.7 60.2,21.7 60.3,23.1 C60.4,23.8 60.2,24.4 59.9,25 C59.5,25.7 59,26 58.4,26 C58.2,26 58,26 57.8,26 C57.6,26 57.4,26.1 57.3,26.3 C56.2,30.2 53,33 48.5,34.2 C42.6,35.7 34.9,34.8 32.9,27.1 Z M43.6,35.6 C45.2,35.6 46.9,35.4 48.7,34.9 C50.3,34.5 51.8,33.8 53.1,33 C53.5,33.1 55.3,33.6 56.3,34.7 C56.3,34.7 56.3,34.7 56.3,34.7 C56.3,34.7 56.3,34.7 56.3,34.7 C55.1,35.1 53.8,35.5 52.4,36 C45.8,38.1 38.4,40.4 34.2,44.5 C33.4,43.7 32.6,42.9 31.7,42.2 C32.5,38.5 34.2,34.5 34.5,33.8 L34.5,33.8 C34.8,33.6 34.8,33.6 35.7,33.3 C35.8,33.3 35.8,33.2 35.8,33.2 C37.9,34.7 40.5,35.6 43.6,35.6 Z M28.8,37.8 C30.2,35.3 32.4,34.4 33.5,34.1 C32.9,35.4 31.7,38.5 31,41.6 C30,40.7 29.1,40 28.1,39.2 L28.8,37.8 Z M15.2,32.2 C17.6,33.2 24.2,36.4 31.5,43 L16.3,34.2 L15.2,32.2 Z M12.6,32.9 L33.3,44.9 L30.3,46.1 L9.9,34.7 L12.6,32.9 Z M14.1,49 C13.2,49 11.7,48.6 11.2,46.2 C10.9,44.8 11,43.8 11.5,43.2 C11.9,42.7 12.4,42.6 12.7,42.6 C14.7,43.8 15.6,45 16,45.8 C16.5,46.8 16.4,47.7 16.1,48.1 C16,48.2 16,48.3 15.8,48.4 C15.8,48.4 15.8,48.4 15.8,48.4 C15.8,48.4 15.8,48.4 15.8,48.4 C15.5,48.8 14.8,49 14.1,49 L14.1,49 Z M16.6,48.9 C16.7,48.8 16.8,48.7 16.8,48.6 C17.2,47.8 17.2,46.7 16.7,45.6 C16.3,44.7 15.3,43.3 13.1,42 L9.5,35.4 L30,46.8 L39.9,66.4 L39.4,66.1 C39.4,66 39.3,66 39.2,66 L18.8,52.4 L16.6,48.9 Z M27.7,59.5 C27.7,59.8 27.5,60 27.2,60 C26.9,60 26.7,59.8 26.7,59.5 C26.7,59.2 26.9,59 27.2,59 C27.5,59 27.7,59.2 27.7,59.5 Z M7.3,70.5 C6.8,70.9 5.9,71.1 5,70.7 C4.1,70.3 2.9,69.1 2.4,65.5 C2.3,64.4 2.1,63.4 2,62.5 C1.5,58.8 1.3,57.7 3.2,56.6 C3.7,56.3 4.3,56.3 4.9,56.6 C6.1,57.1 7.5,58.9 8.1,62.1 C8.1,62.2 8.2,62.3 8.3,62.4 C8.3,62.5 8.4,62.6 8.4,62.7 C9.1,64 10.2,66.6 10.5,69.5 C9.7,69.5 8.4,69.7 7.3,70.5 Z M11.9,70.4 C11.6,70.5 11.2,70.2 11.2,69.9 C10.9,66.8 9.7,63.9 8.9,62.4 C8.8,62.2 8.8,62.1 8.9,61.9 C9,61.7 9.1,61.6 9.3,61.6 L12.9,60.8 C14.5,61.8 15.8,66.8 16.2,69.1 L11.9,70.4 Z M24.2,66.7 C22.4,67 19.9,67.8 17.9,68.5 C17.6,68.6 17.3,68.7 17,68.8 C16.7,67.2 15.6,62.3 13.8,60.5 C15.3,60 18.2,59.1 20.3,58.5 C21,58.3 21.9,58 22.7,57.7 C23.4,57.5 24.1,57.2 24.7,57.1 L26.5,58.3 C26.1,58.5 25.9,58.9 25.9,59.4 C25.9,60.1 26.5,60.7 27.2,60.7 C27.9,60.7 28.4,60.2 28.5,59.6 L37.9,65.8 C31.5,65.8 29,66 24.2,66.7 Z M54.3,86.2 L53.5,83 C53.5,83 53.4,81.1 57.1,80 C55.7,82.2 54.5,84.8 54.8,87 C54.6,86.8 54.5,86.6 54.3,86.2 Z M63.6,77.2 C66.4,79.3 65.6,80.7 65.5,80.8 C65.5,80.8 65.5,80.9 65.4,80.9 C64.4,86 60.7,89.2 57.6,89.3 L57.5,89.7 L57.5,89.3 C56.9,89.3 56.4,89 55.9,88.4 C54,86 56.8,81.1 59,78.6 C60,77.4 61.1,76.8 62.1,76.8 C63.1,76.7 63.6,77.1 63.6,77.2 Z M60.3,69.2 C60.7,71.5 61.1,73.9 61.5,76 C61.5,76 61.5,76 61.5,76 C60.6,76.2 59.6,76.9 58.7,78 C58.4,78.3 58.1,78.7 57.9,79 C54.8,79.7 53.6,80.9 53.1,81.8 C52,79.5 51.3,77.3 50.6,75.4 C49,70.9 47.9,67.6 43.9,66.3 L44.8,65.8 L58,61.1 C58.7,62.9 59.7,66 60.3,69.2 Z M58.1,60.2 C58.1,60.2 58.1,60.2 58.1,60.2 C58.1,60.2 58.1,60.2 58.1,60.2 L44.8,65.1 L39.7,55 L34.7,45.2 L63.5,34.9 L66.2,43.4 C66.2,43.4 66.2,43.4 66.2,43.4 L66.7,44.9 C65.3,47 65.1,48.6 65.1,49.6 C65.1,50.8 65.6,51.8 66.4,52.4 C66.7,52.6 67.1,52.7 67.6,52.7 C68.1,52.7 68.6,52.6 69.1,52.4 L70.2,55.8 L58.1,60.2 Z" id="Shape"></path>
        </g>
    </g>
</svg>