<?xml version="1.0" encoding="UTF-8"?>
<svg width="44px" height="90px" viewBox="0 0 44 90" version="1.1" xmlns="http://www.w3.org/2000/svg" xmlns:xlink="http://www.w3.org/1999/xlink">
    <!-- Generator: Sketch 44 (41411) - http://www.bohemiancoding.com/sketch -->
    <title>stage3</title>
    <desc>Created with Sketch.</desc>
    <defs></defs>
    <g id="Page-1" stroke="none" stroke-width="1" fill="none" fill-rule="evenodd">
        <g id="stage3" fill-rule="nonzero" fill="#FFFFFF">
            <path d="M41.9,31.6 C41.2,31.1 40.5,31 39.9,31.2 C38.9,31.6 38.5,32.9 38.2,33.7 C38.2,33.8 38.1,34 38.1,34.1 C38,34.5 36.7,34.9 35.6,35 C35.6,35 35.5,35 35.5,35 C35.5,35 35.5,35 35.5,35 C35.5,35 35.5,35 35.5,35 C35.5,35 35.5,35 35.5,35 C35.2,35.2 32.3,36.1 30.7,35.7 C30.3,35.6 30.1,35.4 29.9,35.1 C28.8,32.9 26.5,29.7 25.3,28.2 C25,27.8 24.7,27.4 24.5,27.2 C26.4,26 27.7,24.2 28.3,21.8 C28.6,20.7 28.7,19.6 28.6,18.5 C29.5,10.9 27.4,6.2 22.3,4.7 C22.8,3.9 23.1,2.5 22,0.2 C22.1,0.1 22,0 21.9,0 C21.8,0 21.7,0.1 21.6,0.2 C21.6,0.2 21,3.2 19.4,3.2 C19.2,3.2 19,3.2 18.9,3.1 C17.9,2.7 16.9,2.8 16.1,3.3 C15.8,3.5 15.6,3.8 15.6,4.1 C12.8,4.4 10.6,5.5 9.2,7.3 C8,8.8 6.8,11.6 7.5,16.5 C6.4,16.6 5.4,17.6 5.3,18.9 C5.2,20.4 6.1,21.6 7.4,21.8 C7.5,21.8 7.7,21.8 7.8,21.8 C8.3,23.4 9.3,24.8 10.6,25.8 C10,25.9 9,26 8.3,26.5 C7.7,26.5 4.4,26.8 2.4,30.2 C1.1,32.5 0.4,36.9 1.5,40 C1.8,40.7 2.1,41.4 2.5,41.9 C2.5,42.9 2.5,44.4 2.8,45.1 C2.4,46.1 -0.3,52.5 0.9,58.6 C0.9,58.6 0.9,58.6 0.9,58.6 C0.9,58.6 0.9,58.6 0.9,58.6 C0.9,58.7 2.6,65.6 4.2,70.2 C4,70.9 3,75.9 4.2,82.7 C3.9,83.6 2.9,86.9 4.4,87.6 C4.5,87.7 4.7,87.7 4.9,87.8 C6.4,88.5 9.4,90 12,90 C12,90 12,90 12,90 C13.2,90 14.1,89.7 14.8,89 C15.3,88.5 15.5,88 15.4,87.4 C15.1,85.4 11.1,83.4 10,82.9 C10.4,81.9 11.8,78.5 13.2,70.6 C13.7,67.9 13.7,65.5 13.7,63.5 C14.3,63.5 15.8,63.3 17.4,62.7 C17.4,62.7 17.4,62.8 17.5,62.8 C19.2,63.9 20.8,64.6 22.4,64.7 C22.4,65.9 22.5,70.6 26.3,74.6 C27.2,75.6 27.2,75.8 27.2,76.5 C27.2,76.9 27.1,77.4 27.2,78.1 C27.3,79.4 27.8,80.2 28.5,80.6 C29,80.9 29.5,81 30,81 C30.8,81 31.8,80.7 33.6,80.1 C34.7,79.8 36.1,79.3 38,78.8 C39.2,78.5 40.1,77.7 40.5,76.6 C40.8,75.9 40.8,75.4 40.6,74.9 C40.4,74.4 39.9,74.1 39.3,73.9 C38,73.5 36.9,73.6 35.9,73.7 C34.5,73.8 33.3,73.9 32.1,72.8 C31.9,71.8 30.6,63.9 29.7,61.2 C28.8,58.7 25.5,54.9 24.7,54 C25.1,52 24.7,50.8 24.3,49.9 C25.1,49.1 25.6,48 25.9,46.8 C26.2,45.3 26.4,43.9 26.4,42.7 C26.9,42.8 27.5,42.9 28.1,42.9 C31.8,42.9 36.5,41 36.8,40.9 C40.7,40 42.8,37.3 43.2,35.1 C43.6,33.6 43.1,32.3 41.9,31.6 Z M16.4,3.9 C16.7,3.7 17.1,3.6 17.6,3.6 C17.9,3.6 18.3,3.7 18.7,3.8 C19,3.9 19.2,3.9 19.4,3.9 C20.8,3.9 21.6,2.3 22,1.3 C22.5,2.6 22.4,3.7 22,4.4 C21.9,4.5 21.9,4.6 21.8,4.7 C21.8,4.7 21.8,4.7 21.8,4.7 C21.3,5.3 20.3,5.6 19.2,5.6 C18.6,5.6 18,5.5 17.4,5.4 C17.1,5.3 16.8,5.2 16.5,5 C16.3,4.9 16.2,4.7 16.2,4.4 C16.1,4.2 16.2,4 16.4,3.9 Z M8.3,21.4 C8.3,21.2 8.1,21.2 7.9,21.2 C7.7,21.2 7.6,21.3 7.4,21.3 C6.4,21.2 5.8,20.2 5.9,19.1 C6,18 6.8,17.2 7.7,17.2 C7.8,17.2 8,17.1 8,16.9 L8.1,16.6 C8.1,16.6 8.1,16.5 8.1,16.5 C7.4,11.8 8.6,9.1 9.7,7.7 C11,6 13,5.1 15.6,4.7 C15.7,5 15.9,5.2 16.1,5.4 C16.4,5.6 16.8,5.8 17.1,5.9 C17.8,6.1 18.4,6.2 19,6.2 C20.3,6.2 21.3,5.8 21.9,5.2 C29.3,7.3 28.3,15.5 28,18.4 C28,18.4 28,18.5 28,18.5 C28.1,19.6 28,20.6 27.7,21.6 C26.2,27.8 20.1,28.7 15.3,27.5 C11.8,26.7 9.2,24.4 8.3,21.4 Z M15.3,28.2 C16.6,28.5 17.9,28.7 19.1,28.7 C21,28.7 22.7,28.3 24.1,27.6 C24.2,27.7 24.2,27.7 24.3,27.8 C24.3,27.8 24.3,27.9 24.3,27.9 C24.3,27.9 24.6,28.2 24.9,28.7 C26,30.4 27.5,33.4 25.6,36.2 L24.5,37 C22.6,38.6 20.5,39 18,38.2 C18.6,37.7 19.2,37.2 19.5,36.9 C19.7,36.8 19.8,36.7 19.8,36.6 C19.8,36.6 19.8,36.6 19.8,36.6 C21,36.6 21.6,36 22.3,35.5 C22.8,35.1 23.3,34.7 23.9,34.7 C24.8,34.8 25.7,34.1 26,33.2 C26.3,32.3 26,31.2 24.7,30.4 C22.3,29.1 19.8,30.4 19.7,30.4 C18.5,31 17.6,31.5 17,32.2 C16.4,32.5 13.8,33.6 12.2,34.4 C12.1,34.2 12,34.1 11.9,33.9 C11.9,33.8 11.8,33.7 11.7,33.6 L10.7,31.2 C10.6,29.8 10,28.4 9,27.2 L8.6,26.8 C9.6,26.4 10.8,26.3 11.1,26.3 C12.5,27.2 13.8,27.8 15.3,28.2 Z M13.3,40.9 C12.8,40.2 11,37.6 12.1,35.4 C12.1,35.4 12.1,35.3 12.1,35.3 C13.2,34.7 15.7,33.6 17.4,32.8 C17.4,32.8 17.5,32.8 17.5,32.7 C18,32.1 18.8,31.5 20,31 C20,31 22.3,29.8 24.4,31 C25.3,31.5 25.7,32.3 25.4,33.1 C25.2,33.8 24.6,34.3 23.9,34.2 C23,34.1 22.4,34.6 21.8,35.1 C21.2,35.6 20.7,36.1 19.7,36.1 C19.6,36.1 19.6,36.1 19,36.6 C18.2,37.4 15.8,39.5 13.3,40.9 Z M10.9,32.8 L11.4,33.9 C11.5,34 11.5,34.1 11.6,34.2 C11.7,34.4 11.7,34.5 11.9,34.7 C11.6,34.8 11.4,35 11.3,35.1 C11.3,35.1 11.3,35.1 11.2,35.2 L10.3,35.5 L10.7,33.9 C10.8,33.5 10.9,33.2 10.9,32.8 Z M2.9,30.6 C4.6,27.6 7.5,27.2 8.2,27.2 L8.7,27.8 C10.1,29.4 10.6,31.7 10.1,33.8 L9.6,36 C9.6,36.1 9.6,36.2 9.7,36.3 C9.8,36.4 9.9,36.4 10,36.4 L11.3,35.9 C10.7,38.2 12.2,40.5 12.8,41.3 L9.6,42.9 C8.1,43.6 6.5,43.7 5.1,43.2 C3.7,42.7 2.7,41.6 2.1,40 C0.9,36.6 1.9,32.4 2.9,30.6 Z M12.7,70.4 C11,79.7 9.4,82.8 9.4,82.8 C9.4,82.9 9.4,83 9.4,83 C9.4,83.1 9.5,83.1 9.6,83.2 C11,83.8 14.6,85.8 14.9,87.4 C15,87.8 14.8,88.1 14.5,88.5 C13.9,89 13.1,89.3 12.1,89.3 C9.7,89.3 6.6,87.8 5.2,87.2 C5,87.1 4.8,87 4.7,87 C4,86.7 4.3,84.3 4.9,82.8 C4.9,82.8 4.9,82.7 4.9,82.6 C3.6,75.4 4.9,70.3 4.9,70.2 C4.9,70.1 4.9,70.1 4.9,70 C3.4,65.7 1.8,59.2 1.6,58.5 C2.5,54.1 4.7,52.3 8.1,53.3 C11.2,54.2 13.3,57.2 13.2,60.5 C13.2,61.1 13.2,61.7 13.2,62.4 C13.2,64.7 13.3,67.3 12.7,70.4 Z M13.8,62.6 C13.8,61.9 13.8,61.3 13.8,60.7 C13.9,57.1 11.6,53.9 8.2,52.9 C7.5,52.7 6.9,52.6 6.3,52.6 C3.9,52.6 2.3,54.1 1.3,57.1 C0.8,52.3 2.5,47.5 3.2,45.9 C5.3,48.9 10.9,50.4 17,51.7 C17.8,51.9 18.7,52 19.4,52 C20.9,52 22.2,51.6 23.3,50.9 C23.5,50.7 23.8,50.6 24,50.4 C24.3,51.2 24.6,52.3 24.2,53.9 C24.1,54 24.1,54.1 24.1,54.2 C24,54.8 23.8,55.4 23.5,56 C21,62 15.1,62.8 13.7,62.9 C13.8,62.8 13.8,62.7 13.8,62.6 Z M29.2,61.4 C30.2,64.1 31.6,72.9 31.6,73 C31.6,73.1 31.6,73.1 31.7,73.2 C33.1,74.6 34.5,74.4 36,74.3 C37,74.2 38.1,74.1 39.2,74.5 C39.7,74.7 40,74.9 40.2,75.2 C40.3,75.5 40.3,75.9 40.1,76.4 C39.7,77.3 39,77.9 38,78.2 C36.1,78.7 34.7,79.2 33.6,79.5 C30.7,80.4 30.1,80.6 28.9,80 C28.4,79.7 28,79.1 27.9,78 C27.8,77.3 27.9,76.9 27.9,76.5 C28,75.6 27.9,75.3 26.9,74.1 C22.7,69.8 23.1,64.4 23.1,64.4 C23.1,64.3 23.1,64.2 23,64.2 C22.9,64.1 22.9,64.1 22.8,64.1 C21.3,64 19.7,63.4 18.1,62.4 C20.3,61.4 22.6,59.6 24,56.3 C24.2,55.8 24.4,55.3 24.5,54.8 C25.7,56 28.4,59.3 29.2,61.4 Z M25.4,46.6 C25.1,48.2 24.2,49.5 22.9,50.3 C21.4,51.3 19.3,51.5 17,51 C11,49.7 5,48.1 3.3,45 C3.1,44.7 3,43.6 3,42.6 C3.5,43 4.1,43.4 4.7,43.7 C5.3,43.9 6,44.1 6.7,44.1 C7.7,44.1 8.7,43.9 9.6,43.4 L13.2,41.6 C13.2,41.6 13.2,41.6 13.2,41.6 C13.2,41.6 13.2,41.6 13.2,41.6 C14.7,40.8 16.2,39.7 17.4,38.7 C17.4,38.7 17.5,38.8 17.5,38.8 C18.4,39.1 19.3,39.3 20.2,39.3 C21.9,39.3 23.4,38.7 24.8,37.5 L25.9,36.5 C25.9,36.5 25.9,36.5 25.9,36.5 L26,40.1 C26,40.1 26.2,43.1 25.4,46.6 Z M26.6,42.1 C26.6,40.9 26.6,40.2 26.6,40.1 L26.7,35.7 C26.7,35.6 26.7,35.6 26.6,35.5 C27.3,34.1 27.2,32.6 26.8,31.3 C27.8,32.7 28.8,34.2 29.3,35.4 C29.5,35.8 29.9,36.1 30.4,36.3 C31.9,36.7 34.3,36.1 35.3,35.7 L36.4,40.4 C35.3,40.9 29.8,42.9 26.6,42.1 Z M42.7,34.9 C42.4,36.8 40.5,39.2 37.1,40.2 L36,35.5 C36.8,35.4 38.4,35 38.7,34.2 C38.7,34.1 38.8,34 38.8,33.8 C39,33.1 39.4,32 40.1,31.7 C40.5,31.6 41,31.7 41.6,32 C42.5,32.7 42.9,33.7 42.7,34.9 Z" id="Shape"></path>
        </g>
    </g>
</svg>