<?xml version="1.0" encoding="UTF-8"?>
<svg width="61px" height="91px" viewBox="0 0 61 91" version="1.1" xmlns="http://www.w3.org/2000/svg" xmlns:xlink="http://www.w3.org/1999/xlink">
    <!-- Generator: Sketch 44 (41411) - http://www.bohemiancoding.com/sketch -->
    <title>stage6</title>
    <desc>Created with Sketch.</desc>
    <defs></defs>
    <g id="Page-1" stroke="none" stroke-width="1" fill="none" fill-rule="evenodd">
        <g id="stage6" fill-rule="nonzero" fill="#FFFFFF">
            <path d="M60.3,59.4 L56.3,57.9 C56.3,57.9 56.3,57.9 56.3,57.9 C56.3,57.9 56.3,57.8 56.3,57.7 C56.2,56.6 55.4,54.4 53.3,54.3 C53.1,54.3 52.9,54.3 52.7,54.3 C52.3,54.3 51.8,54.3 51.3,54.4 L49.6,49.8 C49.8,49.6 50.1,49.3 50.3,49.1 C50.4,49 50.4,48.8 50.4,48.7 C49.9,47.5 45.4,36.8 41.8,36.8 C41.7,36.8 41.7,36.8 41.6,36.8 C41.2,36.5 40.7,36.4 39.7,36 C42.5,34.9 44.7,32.6 45.9,29.6 C46.4,28.2 46.8,26.8 46.9,25.4 C46.9,25.4 46.9,25.4 46.9,25.4 C48.3,20.1 49.4,10.7 41.4,6.2 C42.4,4.9 42.5,3 41.7,0.4 C41.7,0.2 41.5,0.1 41.3,0.1 C41.2,0.1 41,0.2 40.9,0.4 C40.6,1.4 39.3,3.9 37.7,3.9 C37.4,3.9 37.1,3.8 36.8,3.7 C35.5,3 34.3,3 33.2,3.5 C32.8,3.7 32.5,4 32.3,4.5 C28.6,4.6 25.6,5.7 23.4,7.8 C20.9,10.3 19.5,14.3 19.5,19 C18,19 16.6,20.1 16.2,21.7 C15.8,23.6 16.7,25.4 18.4,25.8 C18.6,25.8 18.8,25.9 19,25.9 C19.6,28.9 21.3,31.5 23.9,33.5 C23.9,33.7 23.9,34.3 23,34.9 C19.6,36.2 15.2,38.8 15,38.9 C14.8,39 10.8,41.1 9.5,45.2 C8.2,49.3 8.2,52.7 8.2,52.8 C8.2,53 8.3,53.1 8.5,53.2 C8.6,53.2 8.9,53.3 9.5,53.5 C9.4,54.6 9.1,58 9.8,60.7 C10,61.4 10.6,62 11.7,62.5 C12.5,62.9 13.7,63.3 14.9,63.5 C14.9,63.6 14.9,63.6 14.9,63.7 L14.9,68.1 C14,67.9 13.1,67.7 12.2,67.6 C8.8,67.2 4.4,68 2.1,70.5 C0.8,71.9 0.4,73.8 0.9,75.9 C2.2,81.7 12.2,85.8 13.9,86.5 C14,86.9 14.1,87.3 14.4,87.7 C14.9,88.5 15.8,89.1 16.8,89.3 C19.5,89.8 21.7,90.1 23.4,90.1 C25.3,90.1 27.8,89.8 28.1,86.9 C28.3,85.1 26,83.9 23.9,83.3 C27.8,83.3 33.9,83.1 38,82.4 L37.9,82.5 C37.8,82.6 37.8,82.7 37.8,82.8 C36.7,83.8 36,84.9 36.4,86 C37,87.5 38,88.2 39.6,88.2 C41.5,88.2 44.1,87.2 47.9,85.4 C48.2,85.3 48.5,85.1 48.7,84.9 C52.9,83 59.9,79.1 59.4,73.6 C59.2,72.1 58.4,70.8 56.8,69.7 C53.6,67.5 48,67 44.4,67.2 C44.4,66.9 44.3,66.5 44.2,66.1 C44,65.5 43.9,64.8 43.8,64.3 C43.8,63.8 43.7,63.1 43.7,62.4 L47.5,64 C47.9,64.2 48.4,64.3 48.9,64.3 C49.2,64.3 49.5,64.3 49.8,64.2 L60,61.6 C60.4,61.5 60.7,61.1 60.8,60.7 C61,59.9 60.8,59.5 60.3,59.4 Z M39.6,57.6 L45.9,56.2 C46.2,56.1 46.5,56.2 46.8,56.3 L56.3,60 L48.9,61.6 L39.2,57.9 C39.3,57.8 39.4,57.7 39.6,57.6 Z M47.1,55.5 C46.7,55.3 46.2,55.3 45.7,55.4 L41.2,56.4 C41.3,56.3 41.5,56.1 41.6,56 C41.6,56 41.7,56 41.7,56 L45.5,55.2 C46.1,55.1 46.7,55.1 47.3,55.3 L49.7,56.2 C49.8,56.3 49.9,56.3 50,56.4 C50.4,56.6 51,56.9 51.6,57.3 C51.7,57.3 51.8,57.4 51.8,57.4 L47.1,55.5 Z M53.3,55 C55.1,55.1 55.5,57.2 55.5,57.6 C55.4,57.9 55.3,57.9 55,57.9 L55,57.9 C54.3,57.9 53,57.1 52,56.5 C51.3,56.1 50.7,55.7 50.2,55.5 C50.1,55.5 50.1,55.5 50.1,55.4 C50.4,55.2 51.4,54.9 52.7,54.9 C53,55 53.2,55 53.3,55 Z M50.6,54.5 C50,54.7 49.6,54.9 49.4,55.2 L47.6,54.5 C46.9,54.2 46.1,54.2 45.4,54.3 L43.9,54.6 C43.9,53.8 44,53 44,52.5 C44.8,52.5 46.7,52.2 49.1,50.2 L50.6,54.5 Z M49.8,48.6 C47.1,51.3 45,51.7 44.1,51.7 C44.5,45.4 42.8,39.2 42.3,37.4 C44.8,37.9 48.4,45.4 49.8,48.6 Z M39,36.5 L39.1,36.5 C40.4,36.9 40.9,37.1 41.3,37.4 C41.6,38.4 43.7,45.2 43.2,52.2 C43.2,52.2 43.2,52.2 43.2,52.2 C43.2,52.2 43.2,52.2 43.2,52.2 C43.2,52.2 43.1,53.5 43.1,54.9 L42,55.1 C42,54.9 42.1,54.7 42.1,54.5 C42.1,53.2 41.3,52.6 40.6,52.4 C38.1,51.5 33.1,54 30.8,56.6 C28.5,56.2 23.3,55.4 21,54.6 C21.2,54.6 21.4,54.5 21.5,54.4 C21.6,54.3 21.7,54.2 21.8,54.1 C21.9,53.7 23.5,43.7 20.3,39.9 C19.5,39 18.6,38.5 17.4,38.4 C19,37.5 21.4,36.3 23.4,35.5 C23.8,35.9 24.8,36.9 26.1,37.9 C27.4,39 29.4,39.5 31.3,39.2 C33,38.9 34.5,38 35.3,36.7 C36.5,36.7 37.6,36.5 38.7,36.2 C38.8,36.2 38.8,36.2 38.9,36.1 C38.9,36.4 38.9,36.4 39,36.5 Z M33.3,4.7 C33.3,4.4 33.5,4.2 33.8,4.1 C34.2,3.9 34.6,3.8 35,3.8 C35.6,3.8 36.2,4 36.8,4.3 C37.2,4.5 37.7,4.6 38.1,4.6 C39.8,4.6 40.9,2.9 41.6,1.7 C41.9,3.4 41.8,4.7 41.1,5.6 C40.3,6.6 39,6.9 38.1,6.9 C37.1,6.9 36,6.7 34.8,6.2 C34.4,6 34.1,5.8 33.7,5.6 C33.4,5.3 33.3,5 33.3,4.7 Z M20,25.3 C20,25.1 19.8,24.9 19.6,25 C19.3,25 19.1,25 18.9,25 C17.7,24.7 17,23.3 17.3,21.9 C17.6,20.5 18.8,19.6 20,19.8 C20.2,19.8 20.4,19.7 20.5,19.5 L20.6,19.2 C20.6,19.2 20.6,19.1 20.6,19.1 C20.6,14.5 21.9,10.7 24.2,8.3 C26.2,6.3 29,5.3 32.5,5.2 C32.6,5.6 32.8,5.9 33.1,6.2 C33.5,6.5 33.9,6.8 34.4,7 C35.6,7.5 36.9,7.8 38,7.8 C39.3,7.8 40.3,7.5 41.1,6.8 C48.8,11.1 47.8,20.1 46.4,25.2 C46.4,25.2 46.4,25.3 46.4,25.3 C46.3,26.7 46,28 45.5,29.3 C44.2,32.6 41.8,34.8 38.6,35.7 C35.6,36.5 32,36.2 28.3,34.7 C23.7,32.8 20.7,29.4 20,25.3 Z M24.9,33.8 C25.8,34.4 26.8,34.9 27.9,35.3 C30.1,36.2 32.2,36.6 34.3,36.7 C33.6,37.6 32.5,38.2 31.2,38.4 C29.5,38.7 27.9,38.2 26.7,37.2 C25.5,36.2 24.6,35.3 24.2,34.9 C24.6,34.6 24.8,34.2 24.9,33.8 Z M10.5,45.3 C11.8,41.4 15.6,39.5 15.6,39.5 L15.6,39.5 C17.4,39 18.7,39.3 19.7,40.5 C22.4,43.7 21.3,52.3 21.1,53.8 C20.3,54 19.4,54.2 18.3,54.2 C14.7,54.2 10.4,52.8 9.3,52.4 C9.3,51.5 9.5,48.6 10.5,45.3 Z M10.8,60.4 C10.2,57.9 10.4,54.8 10.5,53.6 C12.4,54.2 15.5,54.9 18.2,54.9 L18.2,54.9 C18.7,54.9 19.1,54.9 19.5,54.8 C19.5,54.8 19.5,54.8 19.5,54.8 C21.1,55.8 29.9,57.2 30.9,57.3 C31,57.3 31.2,57.3 31.3,57.2 C33.5,54.6 38.3,52.4 40.4,53.1 C41,53.3 41.3,53.8 41.3,54.5 C41.3,55.5 40.7,55.9 39.5,56.7 C38.6,57.3 37.5,58 36.5,59.2 C34.5,61.7 31.3,61.5 31.2,61.5 C31.1,61.5 31.1,61.5 31,61.5 C25.6,63.9 15.9,63.6 12.1,61.7 C11.4,61.3 10.9,60.8 10.8,60.4 Z M2,75.6 C1.6,73.8 1.9,72.2 3,71 C5.1,68.7 9.2,68 12.4,68.3 C15.5,68.6 18.6,70 20.7,71 C22.6,72 23.7,74.1 23.2,76.1 C22.5,79.1 19.7,79.8 18.9,79.9 C16.4,76.1 13.3,74.5 13.2,74.4 C13,74.3 12.8,74.4 12.7,74.6 C12.6,74.8 12.7,75 12.9,75.1 C12.9,75.1 16,76.8 18.4,80.5 C18.4,80.5 18.4,80.5 18.4,80.5 C18.4,80.5 18.4,80.5 18.4,80.5 L20,82.1 C19.7,82.1 19.4,82.1 19.1,82.1 C15.7,82.1 14.6,83.6 14.3,84.9 C14.3,85.1 14.2,85.2 14.2,85.4 C11.9,84.6 3.1,80.6 2,75.6 Z M27.6,86.7 C27.4,88.5 26.3,89.2 23.7,89.2 C22,89.2 19.9,88.9 17.3,88.4 C16.5,88.3 15.8,87.8 15.4,87.1 C15,86.5 14.9,85.8 15.1,85.1 C15.5,83.6 16.8,82.9 19.2,82.9 C19.6,82.9 19.9,82.9 20.4,83 C20.5,83 20.5,83.1 20.6,83.1 C20.6,83.1 20.8,83.1 21.2,83.1 C22.8,83.5 27.7,84.8 27.6,86.7 Z M39.1,81.2 C33.8,82.3 24,82.3 21.2,82.3 L19.4,80.5 C20.7,80.2 23.2,79.2 23.9,76.2 C24.4,74.1 23.5,71.9 21.7,70.6 C21.8,70.6 21.8,70.5 21.9,70.5 C22.1,70.3 22.3,70.2 22.5,70.2 C24.2,69.9 25.6,69.2 26.8,68.6 C28.3,67.9 29.7,67.2 31.8,67 C33.7,66.8 36.8,67.6 39.3,68.2 C39.6,68.3 39.9,68.4 40.2,68.4 C37.6,70.8 37,76.1 37,76.4 C37,76.4 37,76.5 37,76.5 C37.5,78.9 39,80.1 39.9,80.6 L39.3,81.2 C39.2,81.2 39.2,81.2 39.1,81.2 Z M47.9,84.6 C44.2,86.3 41.7,87.3 40,87.3 C38.7,87.3 37.9,86.8 37.5,85.6 C36.8,83.8 41.3,81.2 43,80.5 C44.4,79.9 45.7,79.6 46.7,79.6 C47.9,79.6 48.8,80.1 49.3,81 C49.6,81.6 49.7,82.3 49.5,83 C49.2,83.6 48.6,84.2 47.9,84.6 Z M56.6,70.2 C58,71.1 58.7,72.2 58.9,73.5 C59.3,77.9 54,81.4 50,83.4 C50,83.3 50.1,83.2 50.1,83.1 C50.4,82.2 50.3,81.3 49.9,80.5 C48.8,78.5 46.3,78.2 42.6,79.7 C42.4,79.8 41.9,80 41.2,80.4 C44.2,76.2 47.9,73.9 47.9,73.9 C48.1,73.8 48.2,73.5 48,73.4 C47.9,73.2 47.6,73.1 47.5,73.3 C47.3,73.4 43.6,75.7 40.5,80.1 C39.9,79.8 38.3,78.8 37.9,76.5 C38,75.8 38.8,69.3 42.2,68.3 C44.8,67.4 52.6,67.6 56.6,70.2 Z M43.2,64.2 C43.2,64.8 43.4,65.5 43.6,66.2 C43.7,66.6 43.8,66.9 43.8,67.2 C43,67.3 42.4,67.4 41.9,67.6 C41.6,67.7 41.3,67.8 41.1,68 C40.6,67.9 40.1,67.8 39.5,67.6 C37,67 33.8,66.2 31.7,66.4 C29.5,66.7 27.9,67.4 26.4,68.1 C25.1,68.7 23.9,69.3 22.2,69.6 C21.8,69.7 21.5,69.9 21.3,70.1 C21.1,70.3 21,70.3 20.8,70.4 C19.5,69.7 17.7,69 15.9,68.4 L15.9,63.7 C15.9,63.7 15.9,63.7 15.9,63.7 C17.5,64 19.3,64.1 21.2,64.1 C24.8,64.1 28.6,63.6 31.4,62.4 C32,62.4 35.2,62.5 37.3,59.8 C37.3,59.7 37.4,59.7 37.4,59.6 C37.4,59.6 37.4,59.6 37.4,59.6 L43.1,62 C43.1,62.8 43.2,63.6 43.2,64.2 Z M60,60.6 L49.8,63.2 C49.2,63.4 48.6,63.3 48,63.1 L37.8,58.9 C38,58.7 38.1,58.6 38.3,58.5 C38.3,58.5 38.3,58.5 38.3,58.5 L48.5,62.4 C48.5,62.4 48.6,62.4 48.6,62.4 C48.6,62.4 48.7,62.4 48.7,62.4 L57.5,60.5 C57.7,60.5 57.8,60.3 57.8,60.1 C57.8,59.9 57.7,59.8 57.5,59.7 L55.1,58.8 C55.3,58.8 55.4,58.7 55.6,58.6 L59.8,60.2 C59.9,60.3 59.9,60.4 59.9,60.4 C60.2,60.4 60.2,60.5 60,60.6 Z" id="Shape"></path>
        </g>
    </g>
</svg>