<?xml version="1.0" encoding="UTF-8"?>
<svg width="90px" height="90px" viewBox="0 0 90 90" version="1.1" xmlns="http://www.w3.org/2000/svg" xmlns:xlink="http://www.w3.org/1999/xlink">
    <!-- Generator: Sketch 44 (41411) - http://www.bohemiancoding.com/sketch -->
    <title>stage1</title>
    <desc>Created with Sketch.</desc>
    <defs></defs>
    <g id="Page-1" stroke="none" stroke-width="1" fill="none" fill-rule="evenodd">
        <g id="stage1" fill-rule="nonzero" fill="#FFFFFF">
            <path d="M87.2,19.4 C86.1,18.7 84.6,17.7 83.4,16.4 C82.6,15.5 81.8,14.6 81.1,13.9 C78.1,10.6 76.4,8.6 72.8,8.4 C69.6,8.3 67.5,9.6 65.9,11 C64.7,7.9 62.4,5 58.1,4.5 C58.5,3.6 58.5,2.1 56.9,0 C56.9,1.77635684e-15 56.7,1.77635684e-15 56.6,1.77635684e-15 C56.5,1.77635684e-15 56.4,0.2 56.4,0.3 C56.4,0.3 56.4,2.4 55.5,3.3 C55.2,3.6 54.8,3.8 54.3,3.7 C54.1,3.7 53.9,3.7 53.7,3.7 C52.8,3.7 52.1,4 51.6,4.5 C51.3,4.8 51.2,5.1 51.2,5.5 C48.7,6.5 46.9,8 45.9,10.2 C44.1,14.1 45.5,18.5 45.8,19.3 C44.7,19.6 44,20.8 44.1,22.1 C44.3,23.6 45.5,24.6 46.7,24.5 C46.8,24.5 47,24.5 47.1,24.4 C47.3,24.8 47.6,25.2 47.9,25.5 L26.1,30.7 C25.9,30.4 25.6,30.1 25.4,29.9 C22.4,26.6 20.7,24.6 17.1,24.4 C13.3,24.2 11.1,26.2 9.3,27.8 C8.7,28.3 8.2,28.8 7.7,29.1 C6.4,30 4.5,30.8 3.2,31.3 C1.6,31.9 0.5,33.5 0.5,35.2 L0.5,80 C0.5,81 1.1,81.8 2,82.2 C2.3,82.3 2.5,82.3 2.8,82.3 C4.1,82.3 5.1,81.3 5.1,80 L5.1,76.3 L28.9,83.3 L28.9,87.5 C28.9,88.5 29.5,89.4 30.5,89.8 C30.8,89.9 31.1,90 31.4,90 C31.4,90 31.4,90 31.4,90 C32,90 32.7,89.7 33.1,89.3 C33.6,88.8 33.8,88.2 33.8,87.5 L33.8,84.5 L84.5,67.2 L84.5,71.6 C84.5,72.6 85.1,73.5 86.1,73.9 C86.4,74 86.7,74.1 87,74.1 C87.5,74.1 88,74 88.4,73.7 C89.1,73.2 89.5,72.5 89.5,71.7 L89.5,23.7 C89.5,21.9 88.6,20.3 87.2,19.4 Z M52,5 C52.4,4.6 53,4.4 53.7,4.4 C53.9,4.4 54,4.4 54.2,4.4 C54.9,4.5 55.5,4.3 55.9,3.8 C56.6,3.1 56.8,2 56.9,1.2 C57.7,2.5 57.9,3.6 57.4,4.5 C56.8,5.6 55.2,6.3 53.1,6.2 C52.8,6.2 52.5,6.1 52.2,6 C52,5.9 51.8,5.7 51.8,5.5 C51.8,5.3 51.9,5.1 52,5 Z M47.2,23.7 C47,23.8 46.9,23.8 46.7,23.9 C45.7,24 44.9,23.2 44.7,22.1 C44.6,21 45.2,20 46.1,19.9 C46.3,19.9 46.4,19.7 46.4,19.6 C46.4,19.6 46.4,19.5 46.4,19.5 L46.4,19.4 C46.4,19.4 46.4,19.3 46.4,19.3 C46.2,18.8 44.7,14.4 46.5,10.6 C47.4,8.6 49.1,7.2 51.4,6.3 C51.5,6.5 51.8,6.7 52,6.8 C52.4,6.9 52.7,7 53.1,7 C53.2,7 53.4,7 53.5,7 C55.4,7 57,6.4 57.7,5.3 C64.5,6 66.1,12.8 66.5,17 C66.5,17 66.5,17.1 66.5,17.1 C66.8,18.1 66.9,19.2 66.9,20.3 C66.7,26.7 60.9,28.9 55.9,28.7 C52.2,28.6 49.1,26.9 47.5,24.1 C47.5,23.7 47.3,23.7 47.2,23.7 Z M70.2,29.6 C68.2,29.6 66.6,31.3 66.6,33.3 C66.6,33.6 66.7,34 66.7,34.3 L66.2,34.4 C66,33 65.4,29.7 63.8,27.1 C64.4,26.7 64.9,26.2 65.4,25.7 L84.2,29.2 L73.7,32.2 C73.3,30.7 71.9,29.6 70.2,29.6 Z M73.2,33.3 C73.2,35 71.8,36.4 70.2,36.4 C68.6,36.4 67.2,35 67.2,33.3 C67.2,31.6 68.6,30.2 70.2,30.2 C71.8,30.2 73.2,31.6 73.2,33.3 Z M53.3,34.8 C51.3,34.8 49.7,36.5 49.7,38.5 C49.7,38.7 49.7,39 49.8,39.2 L44.7,40.7 C46.1,30.8 49.3,27.9 50,27.4 C51.6,28.5 53.7,29.1 55.9,29.2 C56.1,29.2 56.3,29.2 56.5,29.2 C59.2,29.2 61.4,28.6 63.2,27.6 C64.9,30.1 65.4,33.4 65.6,34.7 L56.7,37.2 C56.2,35.8 54.9,34.8 53.3,34.8 Z M56.4,38.5 C56.4,40.2 55,41.6 53.4,41.6 C51.7,41.6 50.4,40.2 50.4,38.5 C50.4,36.8 51.8,35.4 53.4,35.4 C55,35.4 56.4,36.8 56.4,38.5 Z M48.4,26.1 C48.7,26.4 49.1,26.7 49.4,27 C48.3,27.8 45.3,31 44,40.8 L33.8,43.7 L33.8,39.5 C33.8,37.8 32.9,36.3 31.5,35.4 C30.4,34.7 28.9,33.7 27.7,32.4 C27.3,32 27,31.6 26.6,31.2 L48.4,26.1 Z M33.8,69.8 L38.3,68.5 L38.3,77.5 L33.8,79 L33.8,69.8 Z M38.3,67.8 C38.3,67.8 38.3,67.8 38.3,67.8 L33.8,69.1 L33.8,49.8 L38.3,48.5 L38.3,67.8 Z M33.2,87.5 C33.2,88 33,88.5 32.6,88.8 C32.3,89.1 31.8,89.3 31.3,89.3 C31.3,89.3 31.3,89.3 31.3,89.3 C31.1,89.3 30.9,89.3 30.6,89.2 C29.9,88.9 29.4,88.2 29.4,87.5 L29.4,83 C29.4,82.9 29.3,82.7 29.2,82.7 L4.9,75.6 C4.9,75.6 4.8,75.6 4.8,75.6 C4.7,75.6 4.7,75.6 4.6,75.7 C4.5,75.8 4.5,75.8 4.5,75.9 L4.5,80 C4.5,80.9 3.7,81.7 2.8,81.7 C2.6,81.7 2.4,81.7 2.2,81.6 C1.5,81.4 1.1,80.7 1.1,80 L1.1,35.3 C1.1,33.8 2,32.5 3.4,32 C4.8,31.5 6.7,30.7 8.1,29.8 C8.7,29.4 9.2,28.9 9.8,28.4 C11.6,26.8 13.6,25 17.1,25.1 C20.4,25.2 22.1,27.2 25,30.4 C25.7,31.2 26.4,32 27.3,32.9 C28.6,34.2 30.1,35.3 31.3,36 C32.6,36.8 33.3,38.1 33.3,39.6 L33.3,87.5 L33.2,87.5 Z M33.8,79.6 L38.7,77.9 C38.8,77.9 38.9,77.7 38.9,77.6 L38.9,48.1 C38.9,48 38.9,47.9 38.8,47.9 C38.7,47.8 38.6,47.8 38.5,47.9 L33.8,49.3 L33.8,44.5 L49.9,39.9 C50.4,41.3 51.7,42.3 53.3,42.3 C55.3,42.3 56.9,40.6 56.9,38.6 C56.9,38.4 56.9,38.1 56.8,37.9 L66.8,35 C67.4,36.3 68.6,37.1 70.1,37.1 C72.1,37.1 73.7,35.4 73.7,33.4 C73.7,33.3 73.7,33.1 73.7,33 L85.5,29.6 C85.7,29.6 85.9,29.6 86,29.7 C86.1,29.8 86.2,30 86.2,30.1 L86.2,33.4 C86.2,33.6 86,33.9 85.8,33.9 L82,35.1 C81.9,35.1 81.8,35.3 81.8,35.4 L81.8,62.8 C81.8,62.9 81.8,63 81.9,63.1 C82,63.2 82.1,63.2 82.2,63.1 L85.6,61.9 C85.8,61.8 86,61.9 86.1,62 C86.2,62.1 86.3,62.3 86.3,62.5 L86.3,65.6 C86.3,65.8 86.1,66 85.9,66.1 L33.8,83.8 L33.8,79.6 Z M82.4,61.7 L83.4,62 L82.4,62.3 L82.4,61.7 Z M84.3,61.7 L82.3,61.1 L82.3,55.2 C82.3,55.2 82.4,55.2 82.4,55.2 C83.2,54.8 84,54.2 84.5,53.5 L84.5,61.6 L84.3,61.7 Z M85.2,50 C85.2,51.9 84.1,53.7 82.4,54.5 L82.4,35.6 L85.2,34.8 L85.2,50 Z M88.9,71.5 C88.9,72.1 88.6,72.7 88.1,73 C87.6,73.3 87,73.4 86.4,73.2 C85.7,72.9 85.2,72.2 85.2,71.5 L85.2,67 C85.2,67 85.2,66.9 85.2,66.9 L86.2,66.6 C86.7,66.4 87,66 87,65.5 L87,62.4 C87,62 86.8,61.7 86.5,61.4 C86.2,61.2 85.8,61.1 85.4,61.2 L85.2,61.3 L85.2,52.5 C85.6,51.7 85.8,50.9 85.8,50 L85.8,34.6 C85.8,34.6 85.8,34.6 85.8,34.6 L86.1,34.5 C86.6,34.4 86.9,33.9 86.9,33.4 L86.9,30.1 C86.9,29.7 86.7,29.4 86.4,29.2 C86.1,29 85.8,28.9 85.5,29 L65.8,25.3 C66.9,23.9 67.5,22.2 67.5,20.2 C67.5,19.1 67.4,18 67.1,16.9 C67,15.4 66.7,13.6 66.1,11.8 C66.1,11.8 66.2,11.8 66.2,11.7 C67.8,10.3 69.7,9 72.7,9.2 C76,9.3 77.7,11.3 80.6,14.5 C81.3,15.3 82,16.1 82.9,17 C84.2,18.3 85.7,19.4 86.9,20.1 C88.2,20.9 88.9,22.2 88.9,23.7 L88.9,71.5 L88.9,71.5 Z" id="Shape"></path>
            <path d="M79.1,35.9 L73.9,37.4 C73.8,37.4 73.7,37.6 73.7,37.7 L73.7,65.5 C73.7,65.6 73.7,65.7 73.8,65.8 C73.9,65.8 73.9,65.9 74,65.9 C74,65.9 74.1,65.9 74.1,65.9 L79.3,64.1 C79.4,64.1 79.5,63.9 79.5,63.8 L79.5,36.2 C79.5,36.1 79.5,36 79.4,36 C79.2,35.9 79.1,35.9 79.1,35.9 Z M78.8,36.6 L78.8,55.6 L74.3,57 L74.3,38 L78.8,36.6 Z M74.3,57.7 L77.7,56.7 L77.7,59.7 L74.3,58.6 L74.3,57.7 Z M74.3,64.3 L75.6,64.7 L74.3,65.2 L74.3,64.3 Z M76.6,64.3 L74.2,63.6 L74.2,59.1 L77.9,60.3 C77.9,60.3 78,60.3 78,60.3 C78.1,60.3 78.1,60.3 78.2,60.2 C78.3,60.1 78.3,60 78.3,60 L78.3,56.4 L78.8,56.2 L78.8,63.5 L76.6,64.3 Z" id="Shape"></path>
            <path d="M62.8,40.7 L57.6,42.2 C57.5,42.2 57.4,42.4 57.4,42.5 L57.4,71.1 C57.4,71.2 57.4,71.3 57.5,71.4 C57.6,71.4 57.6,71.5 57.7,71.5 C57.7,71.5 57.8,71.5 57.8,71.5 L63,69.7 C63.1,69.7 63.2,69.5 63.2,69.4 L63.2,41 C63.2,40.9 63.2,40.8 63.1,40.8 C63,40.7 62.9,40.7 62.8,40.7 Z M62.6,41.4 L62.6,60.5 L58,61.9 L58,42.7 L62.6,41.4 Z M58.1,62.5 C58.1,62.5 58.1,62.5 58.1,62.5 L60.2,61.9 L60.2,64 C60.2,64.6 59.9,65.1 59.5,65.4 C59.1,65.7 58.6,65.8 58.1,65.6 L58.1,62.5 Z M58.1,70.7 L58.1,66.3 C58.2,66.3 58.4,66.3 58.5,66.3 C59,66.3 59.4,66.2 59.8,65.9 C60.4,65.5 60.8,64.8 60.8,64 L60.8,61.7 L62.6,61.2 L62.6,69.1 L58.1,70.7 Z" id="Shape"></path>
            <path d="M54.7,43.1 L49.5,44.6 C49.4,44.6 49.3,44.8 49.3,44.9 L49.3,73.9 C49.3,74 49.3,74.1 49.4,74.2 C49.5,74.2 49.5,74.3 49.6,74.3 C49.6,74.3 49.7,74.3 49.7,74.3 L54.9,72.5 C55,72.5 55.1,72.3 55.1,72.2 L55.1,43.4 C55.1,43.3 55.1,43.2 55,43.2 C54.9,43.1 54.8,43 54.7,43.1 Z M54.5,43.8 L54.5,63 C54.5,63 54.5,63 54.5,63 L49.9,64.4 L49.9,45.1 L54.5,43.8 Z M49.9,73.4 L49.9,64.9 C49.9,64.9 49.9,64.9 49.9,64.9 C49.9,64.9 50,64.9 50,64.9 L54.4,63.6 L54.4,71.9 L49.9,73.4 Z" id="Shape"></path>
            <path d="M70.9,38.3 L65.7,39.8 C65.6,39.8 65.5,40 65.5,40.1 L65.5,68.3 C65.5,68.4 65.5,68.5 65.6,68.6 C65.7,68.6 65.7,68.7 65.8,68.7 C65.8,68.7 65.9,68.7 65.9,68.7 L71.1,66.9 C71.2,66.9 71.3,66.7 71.3,66.6 L71.3,38.6 C71.3,38.5 71.3,38.4 71.2,38.4 C71.1,38.3 71,38.3 70.9,38.3 Z M66.2,60.1 C66.2,60.1 66.2,60.1 66.2,60.1 L70.8,58.7 L70.8,62.6 L66.2,61.3 L66.2,60.1 Z M70.7,39 L70.7,58.1 L66.1,59.5 L66.1,40.4 L70.7,39 Z M66.2,67.9 L66.2,61.9 L70.8,63.2 L70.8,66.3 L66.2,67.9 Z" id="Shape"></path>
            <path d="M46.6,45.4 L41.4,47 C41.3,47 41.2,47.2 41.2,47.3 L41.2,76.7 C41.2,76.8 41.2,76.9 41.3,77 C41.4,77 41.4,77.1 41.5,77.1 C41.5,77.1 41.6,77.1 41.6,77.1 L46.8,75.3 C46.9,75.3 47,75.1 47,75 L47,45.7 C47,45.6 47,45.5 46.9,45.5 C46.8,45.4 46.7,45.4 46.6,45.4 Z M46.4,46.1 L46.4,65.3 L41.8,66.7 L41.8,47.5 L46.4,46.1 Z M41.8,76.2 L41.8,67.4 L46.4,66 L46.4,74.6 L41.8,76.2 Z" id="Shape"></path>
            <path d="M15.4,48.7 L11.1,47.6 C11,47.6 10.9,47.6 10.8,47.7 C10.7,47.8 10.7,47.8 10.7,47.9 L10.7,72.5 C10.7,72.6 10.8,72.8 10.9,72.8 L15.2,74.1 C15.2,74.1 15.3,74.1 15.3,74.1 C15.4,74.1 15.4,74.1 15.5,74 C15.6,73.9 15.6,73.9 15.6,73.8 L15.6,49 C15.7,48.9 15.6,48.8 15.4,48.7 Z M15.1,49.3 L15.1,65.3 L11.4,64.3 L11.4,48.3 L15.1,49.3 Z M11.4,72.3 L11.4,64.9 L15,65.9 C15,65.9 15,65.9 15,65.9 L15,73.5 L11.4,72.3 Z" id="Shape"></path>
            <path d="M22.4,50.5 L18.1,49.4 C18,49.4 17.9,49.4 17.8,49.5 C17.7,49.6 17.7,49.6 17.7,49.7 L17.7,74.7 C17.7,74.8 17.8,75 17.9,75 L22.2,76.3 C22.2,76.3 22.3,76.3 22.3,76.3 C22.4,76.3 22.4,76.3 22.5,76.2 C22.6,76.1 22.6,76.1 22.6,76 L22.6,50.8 C22.7,50.6 22.6,50.5 22.4,50.5 Z M22,51 L22,67.1 L18.3,66.1 C18.3,66.1 18.3,66.1 18.3,66.1 L18.3,50.1 L22,51 Z M18.3,74.5 L18.3,66.8 L22,67.8 L22,75.6 L18.3,74.5 Z" id="Shape"></path>
            <path d="M29.3,52.2 L25.1,51.1 C25,51.1 24.9,51.1 24.8,51.2 C24.7,51.3 24.7,51.3 24.7,51.4 L24.7,76.8 C24.7,76.9 24.8,77.1 24.9,77.1 L29.1,78.4 C29.1,78.4 29.2,78.4 29.2,78.4 C29.3,78.4 29.3,78.4 29.4,78.3 C29.5,78.2 29.5,78.2 29.5,78.1 L29.5,52.5 C29.5,52.4 29.4,52.2 29.3,52.2 Z M28.9,52.7 L28.9,69 L25.3,68 L25.3,51.8 L28.9,52.7 Z M25.3,76.6 L25.3,68.7 L28.9,69.7 L28.9,77.8 L25.3,76.6 Z" id="Shape"></path>
            <path d="M8.5,47 L4.8,46.1 C4.7,46.1 4.6,46.1 4.5,46.2 C4.4,46.3 4.4,46.3 4.4,46.4 L4.4,70.6 C4.4,70.7 4.5,70.9 4.6,70.9 L8.3,72 C8.3,72 8.4,72 8.4,72 C8.5,72 8.5,72 8.6,71.9 C8.7,71.8 8.7,71.8 8.7,71.7 L8.7,47.3 C8.7,47.1 8.6,47 8.5,47 Z M8.1,47.5 L8.1,63.3 L5,62.5 L5,46.7 L8.1,47.5 Z M5,70.3 L5,63.1 L8.1,63.9 L8.1,71.2 L5,70.3 Z" id="Shape"></path>
            <path d="M33.3,33.5 C33.3,33.9 33.7,34.3 34.1,34.3 C34.5,34.3 34.9,34 34.9,33.5 C35.3,33.4 35.5,33.1 35.5,32.7 C35.5,32.3 35.2,32 34.9,31.9 C34.9,31.9 34.9,31.9 34.9,31.9 C34.9,31.4 34.5,31.1 34.1,31.1 C33.6,31.1 33.3,31.5 33.3,31.9 C33.3,31.9 33.3,31.9 33.3,31.9 C32.9,32 32.6,32.3 32.6,32.7 C32.6,33.1 32.9,33.4 33.3,33.5 Z M33.5,32.4 C33.6,32.4 33.6,32.4 33.6,32.4 C33.7,32.5 33.9,32.5 34,32.4 C34.1,32.3 34.1,32.3 34.1,32.1 C34.1,32 34.1,31.9 34,31.8 C33.9,31.8 33.9,31.7 33.9,31.6 C33.9,31.5 34,31.4 34.1,31.4 C34.2,31.4 34.3,31.5 34.3,31.6 C34.3,31.7 34.3,31.7 34.2,31.8 C34.1,31.9 34.1,32 34.1,32 C34.1,32.1 34.1,32.2 34.2,32.3 C34.3,32.4 34.5,32.4 34.6,32.3 C34.6,32.3 34.7,32.3 34.7,32.3 C34.8,32.3 34.9,32.4 34.9,32.5 C34.9,32.6 34.8,32.8 34.6,32.7 C34.5,32.7 34.3,32.7 34.3,32.8 C34.2,32.9 34.2,33 34.3,33.1 C34.3,33.1 34.3,33.2 34.3,33.2 C34.3,33.3 34.2,33.4 34.1,33.4 C34,33.4 33.9,33.3 33.9,33.2 C33.9,33.2 33.9,33.1 33.9,33.1 C34,33 33.9,32.8 33.9,32.7 C33.8,32.6 33.8,32.6 33.7,32.6 C33.7,32.6 33.6,32.6 33.6,32.6 C33.5,32.7 33.3,32.5 33.3,32.4 C33.3,32.5 33.3,32.4 33.5,32.4 Z" id="Shape"></path>
            <path d="M39.5,37.6 C39.5,38 39.9,38.4 40.3,38.4 C40.7,38.4 41.1,38.1 41.1,37.6 C41.5,37.5 41.7,37.2 41.7,36.8 C41.7,36.4 41.4,36.1 41.1,36 C41.1,36 41.1,36 41.1,36 C41.1,35.5 40.7,35.2 40.3,35.2 C39.8,35.2 39.5,35.6 39.5,36 C39.5,36 39.5,36 39.5,36 C39.1,36.1 38.8,36.4 38.8,36.8 C38.9,37.2 39.2,37.6 39.5,37.6 Z M39.9,36.7 C40,36.8 40.2,36.8 40.3,36.7 C40.4,36.6 40.4,36.5 40.4,36.5 C40.4,36.4 40.4,36.3 40.3,36.3 C40.2,36.3 40.2,36.2 40.2,36.1 C40.2,36 40.3,35.9 40.4,35.9 C40.5,35.9 40.6,36 40.6,36.1 C40.6,36.2 40.6,36.2 40.5,36.3 C40.4,36.4 40.4,36.5 40.4,36.6 C40.4,36.7 40.5,36.8 40.5,36.9 C40.6,37 40.8,37 40.9,36.9 C41,36.8 41.2,36.9 41.2,37.1 C41.2,37.2 41.1,37.4 40.9,37.3 C40.8,37.3 40.6,37.3 40.6,37.4 C40.5,37.5 40.5,37.6 40.6,37.7 C40.6,37.7 40.6,37.8 40.6,37.8 C40.6,37.9 40.5,38 40.4,38 C40.3,38 40.2,37.9 40.2,37.8 C40.2,37.8 40.2,37.7 40.2,37.7 C40.3,37.6 40.2,37.4 40.2,37.3 C40.1,37 40,37 39.9,37 C39.9,37 39.8,37 39.8,37 C39.7,37.1 39.5,36.9 39.5,36.8 C39.5,36.7 39.7,36.5 39.9,36.7 Z" id="Shape"></path>
            <path d="M43.2,31.4 C43.2,31.8 43.6,32.2 44,32.2 C44.4,32.2 44.8,31.9 44.8,31.4 C45.2,31.3 45.4,31 45.4,30.6 C45.4,30.2 45.1,29.9 44.8,29.8 C44.8,29.8 44.8,29.8 44.8,29.8 C44.8,29.3 44.4,29 44,29 C43.5,29 43.2,29.4 43.2,29.8 C43.2,29.8 43.2,29.8 43.2,29.8 C42.8,29.9 42.5,30.2 42.5,30.6 C42.5,31 42.8,31.3 43.2,31.4 Z M43.3,30.3 C43.4,30.3 43.4,30.3 43.4,30.3 C43.5,30.4 43.7,30.4 43.8,30.3 C43.9,30.2 43.9,30.1 43.9,30.1 C43.9,30 43.9,29.9 43.8,29.9 C43.7,29.9 43.7,29.8 43.7,29.7 C43.7,29.6 43.8,29.5 43.9,29.5 C44,29.5 44.1,29.6 44.1,29.7 C44.1,29.8 44.1,29.8 44,29.9 C44,29.9 44,30 44,30.1 C44,30.2 44.1,30.3 44.1,30.4 C44.2,30.5 44.4,30.5 44.5,30.4 C44.6,30.3 44.8,30.4 44.8,30.6 C44.8,30.7 44.7,30.9 44.5,30.8 C44.4,30.8 44.2,30.8 44.2,30.9 C44.1,31 44.1,31.1 44.2,31.2 C44.2,31.2 44.2,31.3 44.2,31.3 C44.2,31.4 44.1,31.5 44,31.5 C43.9,31.5 43.8,31.4 43.8,31.3 C43.8,31.3 43.8,31.2 43.8,31.2 C43.9,31.1 43.8,30.9 43.8,30.8 C43.7,30.7 43.7,30.7 43.6,30.7 C43.6,30.7 43.5,30.7 43.5,30.7 C43.4,30.8 43.2,30.6 43.2,30.5 C43.1,30.4 43.2,30.3 43.3,30.3 Z" id="Shape"></path>
            <path d="M68.1,27.8 C68.1,27.8 68.1,27.8 68.1,27.8 C68.1,27.3 67.7,26.9 67.3,26.9 C66.8,26.9 66.5,27.3 66.5,27.7 C66.5,27.7 66.5,27.7 66.5,27.7 C66.1,27.8 65.8,28.1 65.8,28.5 C65.8,28.9 66.1,29.2 66.5,29.3 C66.5,29.7 66.9,30.1 67.3,30.1 C67.7,30.1 68.1,29.8 68.1,29.3 C68.5,29.2 68.7,28.9 68.7,28.5 C68.7,28.2 68.5,27.9 68.1,27.8 Z M67.3,27.6 C67.4,27.6 67.5,27.7 67.5,27.8 C67.5,27.9 67.5,27.9 67.4,28 C67.3,28 67.3,28.1 67.3,28.2 C67.3,28.1 67.2,28.1 67.2,28 C67.1,28 67.1,27.9 67.1,27.8 C67,27.7 67.1,27.6 67.3,27.6 Z M67.8,28.8 C67.7,28.8 67.5,28.8 67.5,28.9 C67.4,29 67.4,29.1 67.5,29.2 C67.5,29.2 67.5,29.3 67.5,29.3 C67.5,29.4 67.4,29.5 67.3,29.5 C67.2,29.5 67.1,29.4 67.1,29.3 C67.1,29.3 67.1,29.2 67.1,29.2 C67.2,29.1 67.1,28.9 67.1,28.8 C67,28.7 67,28.7 66.9,28.7 C66.9,28.7 66.8,28.7 66.8,28.7 C66.7,28.8 66.5,28.6 66.5,28.5 C66.5,28.3 66.7,28.2 66.8,28.3 C66.9,28.4 67.1,28.4 67.2,28.3 C67.3,28.3 67.3,28.2 67.3,28.1 C67.3,28.2 67.4,28.2 67.4,28.3 C67.5,28.4 67.7,28.4 67.8,28.3 C67.9,28.2 68.1,28.3 68.1,28.5 C68.1,28.8 68,28.9 67.8,28.8 Z" id="Shape"></path>
            <path d="M77,29.1 C77,29.1 77,29.1 77,29.1 C77,28.6 76.6,28.2 76.2,28.2 C75.8,28.2 75.4,28.6 75.4,29 C75.4,29 75.4,29 75.4,29 C75,29.1 74.7,29.4 74.7,29.8 C74.7,30.2 75,30.5 75.4,30.6 C75.4,31 75.8,31.4 76.2,31.4 C76.6,31.4 77,31.1 77,30.6 C77.4,30.5 77.6,30.2 77.6,29.8 C77.7,29.6 77.4,29.2 77,29.1 Z M76.8,30.1 C76.7,30.1 76.5,30.1 76.5,30.2 C76.4,30.3 76.4,30.4 76.5,30.5 C76.5,30.5 76.5,30.6 76.5,30.6 C76.5,30.7 76.4,30.8 76.3,30.8 C76.2,30.8 76.1,30.7 76.1,30.6 C76.1,30.6 76.1,30.5 76.1,30.5 C76.2,30.4 76.1,30.2 76.1,30.1 C76,30 76,30 75.9,30 C75.9,30 75.8,30 75.8,30 C75.7,30.1 75.5,29.9 75.5,29.8 C75.5,29.7 75.6,29.6 75.7,29.6 C75.8,29.6 75.8,29.6 75.8,29.6 C75.9,29.7 76.1,29.7 76.2,29.6 C76.3,29.5 76.3,29.4 76.3,29.4 C76.3,29.3 76.3,29.2 76.2,29.1 C76.1,29.1 76.1,29 76.1,28.9 C76.1,28.8 76.2,28.7 76.3,28.7 C76.4,28.7 76.5,28.8 76.5,28.9 C76.5,29 76.5,29 76.4,29.1 C76.3,29.2 76.3,29.2 76.3,29.3 C76.3,29.4 76.3,29.5 76.4,29.6 C76.5,29.7 76.7,29.7 76.8,29.6 C76.8,29.6 76.9,29.6 76.9,29.6 C77,29.6 77.1,29.7 77.1,29.8 C77,30.1 76.9,30.2 76.8,30.1 Z" id="Shape"></path>
        </g>
    </g>
</svg>